<mxfile host="app.diagrams.net" modified="2023-10-28T16:22:09.506Z" agent="Mozilla/5.0 (Macintosh; Intel Mac OS X 10_15_7) AppleWebKit/605.1.15 (KHTML, like Gecko) Version/15.4 Safari/605.1.15" etag="adhTtO8NN38sq_12OQiE" version="22.0.8" type="device">
  <diagram name="Страница — 1" id="-9vrevjKqJzAlyM3fpWj">
    <mxGraphModel dx="1026" dy="692" grid="0" gridSize="10" guides="1" tooltips="1" connect="1" arrows="1" fold="1" page="1" pageScale="1" pageWidth="3300" pageHeight="4681" math="0" shadow="0">
      <root>
        <mxCell id="0" />
        <mxCell id="1" parent="0" />
        <mxCell id="E5Td9oNzjHZt29u5cTtP-1" value="Admin&lt;br&gt;" style="shape=umlActor;verticalLabelPosition=bottom;verticalAlign=top;html=1;labelBackgroundColor=none;fillColor=#A8DADC;strokeColor=#457B9D;fontColor=#1D3557;" vertex="1" parent="1">
          <mxGeometry x="145" y="60" width="30" height="60" as="geometry" />
        </mxCell>
        <mxCell id="E5Td9oNzjHZt29u5cTtP-3" value="UI" style="shape=umlBoundary;whiteSpace=wrap;html=1;labelBackgroundColor=none;fillColor=#A8DADC;strokeColor=#457B9D;fontColor=#1D3557;" vertex="1" parent="1">
          <mxGeometry x="400" y="60" width="70" height="60" as="geometry" />
        </mxCell>
        <mxCell id="E5Td9oNzjHZt29u5cTtP-4" value="User Based Back" style="ellipse;shape=umlControl;whiteSpace=wrap;html=1;labelBackgroundColor=none;fillColor=#A8DADC;strokeColor=#457B9D;fontColor=#1D3557;" vertex="1" parent="1">
          <mxGeometry x="690" y="50" width="60" height="70" as="geometry" />
        </mxCell>
        <mxCell id="E5Td9oNzjHZt29u5cTtP-5" value="Edit Trans-action" style="ellipse;shape=umlControl;whiteSpace=wrap;html=1;labelBackgroundColor=none;fillColor=#A8DADC;strokeColor=#457B9D;fontColor=#1D3557;" vertex="1" parent="1">
          <mxGeometry x="970" y="50" width="60" height="70" as="geometry" />
        </mxCell>
        <mxCell id="E5Td9oNzjHZt29u5cTtP-6" value="Logins DB" style="ellipse;shape=umlEntity;whiteSpace=wrap;html=1;labelBackgroundColor=none;fillColor=#A8DADC;strokeColor=#457B9D;fontColor=#1D3557;" vertex="1" parent="1">
          <mxGeometry x="1250" y="60" width="60" height="60" as="geometry" />
        </mxCell>
        <mxCell id="E5Td9oNzjHZt29u5cTtP-7" value="" style="endArrow=none;dashed=1;html=1;dashPattern=1 3;strokeWidth=2;rounded=0;strokeColor=#457B9D;fontColor=#1D3557;fillColor=#A8DADC;entryX=0.5;entryY=0.5;entryDx=0;entryDy=0;entryPerimeter=0;" edge="1" parent="1" source="E5Td9oNzjHZt29u5cTtP-137" target="E5Td9oNzjHZt29u5cTtP-1">
          <mxGeometry width="50" height="50" relative="1" as="geometry">
            <mxPoint x="160" y="3240" as="sourcePoint" />
            <mxPoint x="220" y="240" as="targetPoint" />
          </mxGeometry>
        </mxCell>
        <mxCell id="E5Td9oNzjHZt29u5cTtP-8" value="" style="endArrow=none;dashed=1;html=1;dashPattern=1 3;strokeWidth=2;rounded=0;strokeColor=#457B9D;fontColor=#1D3557;fillColor=#A8DADC;entryX=0.571;entryY=1;entryDx=0;entryDy=0;entryPerimeter=0;" edge="1" parent="1" source="E5Td9oNzjHZt29u5cTtP-139" target="E5Td9oNzjHZt29u5cTtP-3">
          <mxGeometry width="50" height="50" relative="1" as="geometry">
            <mxPoint x="440" y="3240" as="sourcePoint" />
            <mxPoint x="440" y="130" as="targetPoint" />
          </mxGeometry>
        </mxCell>
        <mxCell id="E5Td9oNzjHZt29u5cTtP-10" value="" style="endArrow=none;dashed=1;html=1;dashPattern=1 3;strokeWidth=2;rounded=0;strokeColor=#457B9D;fontColor=#1D3557;fillColor=#A8DADC;entryX=0.467;entryY=1.014;entryDx=0;entryDy=0;entryPerimeter=0;" edge="1" parent="1" source="E5Td9oNzjHZt29u5cTtP-141" target="E5Td9oNzjHZt29u5cTtP-4">
          <mxGeometry width="50" height="50" relative="1" as="geometry">
            <mxPoint x="718" y="3240" as="sourcePoint" />
            <mxPoint x="719.5" y="130" as="targetPoint" />
          </mxGeometry>
        </mxCell>
        <mxCell id="E5Td9oNzjHZt29u5cTtP-11" value="" style="endArrow=none;dashed=1;html=1;dashPattern=1 3;strokeWidth=2;rounded=0;strokeColor=#457B9D;fontColor=#1D3557;fillColor=#A8DADC;entryX=0.517;entryY=1.014;entryDx=0;entryDy=0;entryPerimeter=0;" edge="1" parent="1" source="E5Td9oNzjHZt29u5cTtP-159" target="E5Td9oNzjHZt29u5cTtP-5">
          <mxGeometry width="50" height="50" relative="1" as="geometry">
            <mxPoint x="1001" y="3240" as="sourcePoint" />
            <mxPoint x="999.25" y="131" as="targetPoint" />
          </mxGeometry>
        </mxCell>
        <mxCell id="E5Td9oNzjHZt29u5cTtP-12" value="" style="endArrow=none;dashed=1;html=1;dashPattern=1 3;strokeWidth=2;rounded=0;strokeColor=#457B9D;fontColor=#1D3557;fillColor=#A8DADC;entryX=0.5;entryY=1;entryDx=0;entryDy=0;" edge="1" parent="1" target="E5Td9oNzjHZt29u5cTtP-6">
          <mxGeometry width="50" height="50" relative="1" as="geometry">
            <mxPoint x="1280" y="3240" as="sourcePoint" />
            <mxPoint x="1279.75" y="131" as="targetPoint" />
          </mxGeometry>
        </mxCell>
        <mxCell id="E5Td9oNzjHZt29u5cTtP-13" value="&#39;Edit Users&#39; Button Pressed" style="html=1;verticalAlign=bottom;endArrow=block;curved=0;rounded=0;strokeColor=#457B9D;fontColor=#1D3557;fillColor=#A8DADC;" edge="1" parent="1">
          <mxGeometry width="80" relative="1" as="geometry">
            <mxPoint x="160" y="200" as="sourcePoint" />
            <mxPoint x="440" y="200" as="targetPoint" />
          </mxGeometry>
        </mxCell>
        <mxCell id="E5Td9oNzjHZt29u5cTtP-14" value="Send Request for &#39;Logins&#39; list &lt;br&gt;with its &#39;Nicknames&#39;, &#39;Roles&#39; and &#39;Department&#39;" style="html=1;verticalAlign=bottom;endArrow=block;curved=0;rounded=0;strokeColor=#457B9D;fontColor=#1D3557;fillColor=#A8DADC;" edge="1" parent="1">
          <mxGeometry width="80" relative="1" as="geometry">
            <mxPoint x="440" y="220" as="sourcePoint" />
            <mxPoint x="720" y="220" as="targetPoint" />
          </mxGeometry>
        </mxCell>
        <mxCell id="E5Td9oNzjHZt29u5cTtP-15" value="Get Encoded &#39;Logins&#39; list&amp;nbsp;with its &#39;Nicknames&#39;,&lt;br&gt;&amp;nbsp;&#39;Roles&#39; and &#39;Department&#39;&lt;br&gt;and RSA keys" style="html=1;verticalAlign=bottom;endArrow=block;curved=0;rounded=0;strokeColor=#457B9D;fontColor=#1D3557;fillColor=#A8DADC;" edge="1" parent="1">
          <mxGeometry width="80" relative="1" as="geometry">
            <mxPoint x="720" y="240" as="sourcePoint" />
            <mxPoint x="1280" y="240" as="targetPoint" />
            <mxPoint as="offset" />
          </mxGeometry>
        </mxCell>
        <mxCell id="E5Td9oNzjHZt29u5cTtP-17" value="Send Encoded &#39;Logins&#39; with its &#39;Nicknames&#39;,&lt;br&gt;&amp;nbsp;&#39;Roles&#39; and &#39;Department&#39; and&lt;br&gt;&amp;nbsp;RSA keys" style="html=1;verticalAlign=bottom;endArrow=block;curved=0;rounded=0;strokeColor=#457B9D;fontColor=#1D3557;fillColor=#A8DADC;" edge="1" parent="1">
          <mxGeometry width="80" relative="1" as="geometry">
            <mxPoint x="1280" y="380" as="sourcePoint" />
            <mxPoint x="720" y="380" as="targetPoint" />
          </mxGeometry>
        </mxCell>
        <mxCell id="E5Td9oNzjHZt29u5cTtP-19" value="Send Decoded &#39;Logins&#39; list&amp;nbsp;with its &lt;br&gt;&#39;Nicknames&#39;, &#39;Roles&#39; and &#39;Department&#39;" style="html=1;verticalAlign=bottom;endArrow=block;curved=0;rounded=0;strokeColor=#457B9D;fontColor=#1D3557;fillColor=#A8DADC;" edge="1" parent="1">
          <mxGeometry width="80" relative="1" as="geometry">
            <mxPoint x="720" y="500" as="sourcePoint" />
            <mxPoint x="440" y="500" as="targetPoint" />
          </mxGeometry>
        </mxCell>
        <mxCell id="E5Td9oNzjHZt29u5cTtP-22" value="Show list of &#39;Logins&#39; with its&amp;nbsp;&lt;br&gt;&#39;Nicknames&#39;, &#39;Roles&#39; and &#39;Department&#39;" style="html=1;verticalAlign=bottom;endArrow=block;curved=0;rounded=0;strokeColor=#457B9D;fontColor=#1D3557;fillColor=#A8DADC;" edge="1" parent="1">
          <mxGeometry width="80" relative="1" as="geometry">
            <mxPoint x="440" y="520" as="sourcePoint" />
            <mxPoint x="160" y="520" as="targetPoint" />
          </mxGeometry>
        </mxCell>
        <mxCell id="E5Td9oNzjHZt29u5cTtP-24" value="One of the list items was selected" style="html=1;verticalAlign=bottom;endArrow=block;curved=0;rounded=0;strokeColor=#457B9D;fontColor=#1D3557;fillColor=#A8DADC;" edge="1" parent="1">
          <mxGeometry width="80" relative="1" as="geometry">
            <mxPoint x="160" y="560" as="sourcePoint" />
            <mxPoint x="440" y="560" as="targetPoint" />
          </mxGeometry>
        </mxCell>
        <mxCell id="E5Td9oNzjHZt29u5cTtP-25" value="Show &#39;Rename&#39;, &#39;Change Role&#39;,&lt;br&gt;&amp;nbsp;&#39;Change Department&#39;&lt;br&gt;&amp;nbsp;&#39;New Password&#39; Buttons" style="html=1;verticalAlign=bottom;endArrow=block;curved=0;rounded=0;strokeColor=#457B9D;fontColor=#1D3557;fillColor=#A8DADC;" edge="1" parent="1">
          <mxGeometry width="80" relative="1" as="geometry">
            <mxPoint x="440" y="620" as="sourcePoint" />
            <mxPoint x="160" y="620" as="targetPoint" />
            <mxPoint as="offset" />
          </mxGeometry>
        </mxCell>
        <mxCell id="E5Td9oNzjHZt29u5cTtP-28" value="&#39;Change Role&#39; Button Pressed" style="html=1;verticalAlign=bottom;endArrow=block;curved=0;rounded=0;strokeColor=#457B9D;fontColor=#1D3557;fillColor=#A8DADC;" edge="1" parent="1">
          <mxGeometry width="80" relative="1" as="geometry">
            <mxPoint x="160" y="700" as="sourcePoint" />
            <mxPoint x="440" y="700" as="targetPoint" />
          </mxGeometry>
        </mxCell>
        <mxCell id="E5Td9oNzjHZt29u5cTtP-30" value="Send request for &#39;Roles&#39; List" style="html=1;verticalAlign=bottom;endArrow=block;curved=0;rounded=0;strokeColor=#457B9D;fontColor=#1D3557;fillColor=#A8DADC;" edge="1" parent="1">
          <mxGeometry width="80" relative="1" as="geometry">
            <mxPoint x="440" y="710" as="sourcePoint" />
            <mxPoint x="720" y="710" as="targetPoint" />
            <mxPoint as="offset" />
          </mxGeometry>
        </mxCell>
        <mxCell id="E5Td9oNzjHZt29u5cTtP-31" value="Get &#39;Roles&#39; List" style="html=1;verticalAlign=bottom;endArrow=block;curved=0;rounded=0;strokeColor=#457B9D;fontColor=#1D3557;fillColor=#A8DADC;" edge="1" parent="1">
          <mxGeometry width="80" relative="1" as="geometry">
            <mxPoint x="720" y="731" as="sourcePoint" />
            <mxPoint x="1280" y="731" as="targetPoint" />
          </mxGeometry>
        </mxCell>
        <mxCell id="E5Td9oNzjHZt29u5cTtP-32" value="Send &#39;Roles&#39; List" style="html=1;verticalAlign=bottom;endArrow=block;curved=0;rounded=0;strokeColor=#457B9D;fontColor=#1D3557;fillColor=#A8DADC;" edge="1" parent="1">
          <mxGeometry width="80" relative="1" as="geometry">
            <mxPoint x="1280" y="825" as="sourcePoint" />
            <mxPoint x="720" y="825" as="targetPoint" />
          </mxGeometry>
        </mxCell>
        <mxCell id="E5Td9oNzjHZt29u5cTtP-33" value="Form &#39;Roles&#39; List" style="html=1;verticalAlign=bottom;endArrow=block;curved=0;rounded=0;strokeColor=#457B9D;fontColor=#1D3557;fillColor=#A8DADC;" edge="1" parent="1">
          <mxGeometry width="80" relative="1" as="geometry">
            <mxPoint x="1280" y="745" as="sourcePoint" />
            <mxPoint x="1280" y="805" as="targetPoint" />
            <Array as="points">
              <mxPoint x="1360" y="745" />
              <mxPoint x="1360" y="805" />
            </Array>
          </mxGeometry>
        </mxCell>
        <mxCell id="E5Td9oNzjHZt29u5cTtP-34" value="Send &#39;Roles&#39; List" style="html=1;verticalAlign=bottom;endArrow=block;curved=0;rounded=0;strokeColor=#457B9D;fontColor=#1D3557;fillColor=#A8DADC;" edge="1" parent="1">
          <mxGeometry width="80" relative="1" as="geometry">
            <mxPoint x="720" y="846" as="sourcePoint" />
            <mxPoint x="440" y="846" as="targetPoint" />
          </mxGeometry>
        </mxCell>
        <mxCell id="E5Td9oNzjHZt29u5cTtP-37" value="" style="html=1;points=[[0,0,0,0,5],[0,1,0,0,-5],[1,0,0,0,5],[1,1,0,0,-5]];perimeter=orthogonalPerimeter;outlineConnect=0;targetShapes=umlLifeline;portConstraint=eastwest;newEdgeStyle={&quot;curved&quot;:0,&quot;rounded&quot;:0};strokeColor=#457B9D;fontColor=#1D3557;fillColor=#A8DADC;" vertex="1" parent="1">
          <mxGeometry x="1275" y="740" width="10" height="70" as="geometry" />
        </mxCell>
        <mxCell id="E5Td9oNzjHZt29u5cTtP-38" value="Show available &#39;Roles&#39; list" style="html=1;verticalAlign=bottom;endArrow=block;curved=0;rounded=0;strokeColor=#457B9D;fontColor=#1D3557;fillColor=#A8DADC;" edge="1" parent="1">
          <mxGeometry width="80" relative="1" as="geometry">
            <mxPoint x="440" y="880" as="sourcePoint" />
            <mxPoint x="160" y="880" as="targetPoint" />
          </mxGeometry>
        </mxCell>
        <mxCell id="E5Td9oNzjHZt29u5cTtP-39" value="Pick New Role from list" style="html=1;verticalAlign=bottom;endArrow=block;curved=0;rounded=0;strokeColor=#457B9D;fontColor=#1D3557;fillColor=#A8DADC;" edge="1" parent="1">
          <mxGeometry width="80" relative="1" as="geometry">
            <mxPoint x="160" y="920" as="sourcePoint" />
            <mxPoint x="440" y="920" as="targetPoint" />
          </mxGeometry>
        </mxCell>
        <mxCell id="E5Td9oNzjHZt29u5cTtP-40" value="Press &#39;Save&#39; Button" style="html=1;verticalAlign=bottom;endArrow=block;curved=0;rounded=0;strokeColor=#457B9D;fontColor=#1D3557;fillColor=#A8DADC;" edge="1" parent="1">
          <mxGeometry width="80" relative="1" as="geometry">
            <mxPoint x="160" y="960" as="sourcePoint" />
            <mxPoint x="440" y="960" as="targetPoint" />
          </mxGeometry>
        </mxCell>
        <mxCell id="E5Td9oNzjHZt29u5cTtP-41" value="Send new &#39;Role&#39; and selected user &#39;Login&#39;" style="html=1;verticalAlign=bottom;endArrow=block;curved=0;rounded=0;strokeColor=#457B9D;fontColor=#1D3557;fillColor=#A8DADC;" edge="1" parent="1">
          <mxGeometry width="80" relative="1" as="geometry">
            <mxPoint x="440" y="1000" as="sourcePoint" />
            <mxPoint x="720" y="1000" as="targetPoint" />
          </mxGeometry>
        </mxCell>
        <mxCell id="E5Td9oNzjHZt29u5cTtP-43" value="Send new &#39;Role&#39; and selected user&lt;br&gt;&amp;nbsp;&#39;Login&#39; Encoded and RSA key" style="html=1;verticalAlign=bottom;endArrow=block;curved=0;rounded=0;strokeColor=#457B9D;fontColor=#1D3557;fillColor=#A8DADC;" edge="1" parent="1">
          <mxGeometry width="80" relative="1" as="geometry">
            <mxPoint x="720" y="1129" as="sourcePoint" />
            <mxPoint x="1000" y="1129" as="targetPoint" />
            <mxPoint as="offset" />
          </mxGeometry>
        </mxCell>
        <mxCell id="E5Td9oNzjHZt29u5cTtP-44" value="Edit User Information" style="html=1;verticalAlign=bottom;endArrow=block;curved=0;rounded=0;strokeColor=#457B9D;fontColor=#1D3557;fillColor=#A8DADC;" edge="1" parent="1">
          <mxGeometry width="80" relative="1" as="geometry">
            <mxPoint x="1000" y="1159" as="sourcePoint" />
            <mxPoint x="1280" y="1159" as="targetPoint" />
          </mxGeometry>
        </mxCell>
        <mxCell id="E5Td9oNzjHZt29u5cTtP-45" value="Kafka" style="ellipse;shape=umlEntity;whiteSpace=wrap;html=1;labelBackgroundColor=none;fillColor=#A8DADC;strokeColor=#457B9D;fontColor=#1D3557;" vertex="1" parent="1">
          <mxGeometry x="1530" y="60" width="60" height="60" as="geometry" />
        </mxCell>
        <mxCell id="E5Td9oNzjHZt29u5cTtP-46" value="" style="endArrow=none;dashed=1;html=1;dashPattern=1 3;strokeWidth=2;rounded=0;strokeColor=#457B9D;fontColor=#1D3557;fillColor=#A8DADC;entryX=0.5;entryY=1;entryDx=0;entryDy=0;" edge="1" parent="1" target="E5Td9oNzjHZt29u5cTtP-45">
          <mxGeometry width="50" height="50" relative="1" as="geometry">
            <mxPoint x="1560" y="3240" as="sourcePoint" />
            <mxPoint x="1559.75" y="131" as="targetPoint" />
          </mxGeometry>
        </mxCell>
        <mxCell id="E5Td9oNzjHZt29u5cTtP-47" value="Send Notification &lt;br&gt;to Task Manager to Unlogin &lt;br&gt;Edited User&amp;nbsp;" style="html=1;verticalAlign=bottom;endArrow=block;curved=0;rounded=0;strokeColor=#457B9D;fontColor=#1D3557;fillColor=#A8DADC;" edge="1" parent="1">
          <mxGeometry width="80" relative="1" as="geometry">
            <mxPoint x="1280" y="1181.5" as="sourcePoint" />
            <mxPoint x="1560" y="1181.5" as="targetPoint" />
          </mxGeometry>
        </mxCell>
        <mxCell id="E5Td9oNzjHZt29u5cTtP-49" value="[Changing Role]" style="text;align=center;fontStyle=1;verticalAlign=middle;spacingLeft=3;spacingRight=3;strokeColor=none;rotatable=0;points=[[0,0.5],[1,0.5]];portConstraint=eastwest;html=1;fontColor=#1D3557;" vertex="1" parent="1">
          <mxGeometry x="210" y="650" width="80" height="26" as="geometry" />
        </mxCell>
        <mxCell id="E5Td9oNzjHZt29u5cTtP-50" value="&#39;Rename&#39; Button Pressed" style="html=1;verticalAlign=bottom;endArrow=block;curved=0;rounded=0;strokeColor=#457B9D;fontColor=#1D3557;fillColor=#A8DADC;" edge="1" parent="1">
          <mxGeometry width="80" relative="1" as="geometry">
            <mxPoint x="160" y="1385" as="sourcePoint" />
            <mxPoint x="440" y="1385" as="targetPoint" />
          </mxGeometry>
        </mxCell>
        <mxCell id="E5Td9oNzjHZt29u5cTtP-52" value="Show &#39;Rename User&#39; Field" style="html=1;verticalAlign=bottom;endArrow=block;curved=0;rounded=0;strokeColor=#457B9D;fontColor=#1D3557;fillColor=#A8DADC;" edge="1" parent="1">
          <mxGeometry width="80" relative="1" as="geometry">
            <mxPoint x="440" y="1425" as="sourcePoint" />
            <mxPoint x="160" y="1425" as="targetPoint" />
          </mxGeometry>
        </mxCell>
        <mxCell id="E5Td9oNzjHZt29u5cTtP-53" value="Enter New Nickname" style="html=1;verticalAlign=bottom;endArrow=block;curved=0;rounded=0;strokeColor=#457B9D;fontColor=#1D3557;fillColor=#A8DADC;" edge="1" parent="1">
          <mxGeometry width="80" relative="1" as="geometry">
            <mxPoint x="160" y="1465" as="sourcePoint" />
            <mxPoint x="440" y="1465" as="targetPoint" />
          </mxGeometry>
        </mxCell>
        <mxCell id="E5Td9oNzjHZt29u5cTtP-54" value="Send new &#39;Nickname&#39; and selected user &#39;Login&#39;" style="html=1;verticalAlign=bottom;endArrow=block;curved=0;rounded=0;strokeColor=#457B9D;fontColor=#1D3557;fillColor=#A8DADC;" edge="1" parent="1">
          <mxGeometry width="80" relative="1" as="geometry">
            <mxPoint x="440" y="1495" as="sourcePoint" />
            <mxPoint x="720" y="1495" as="targetPoint" />
          </mxGeometry>
        </mxCell>
        <mxCell id="E5Td9oNzjHZt29u5cTtP-55" value="Send new &#39;Nickname&#39; and selected user &lt;br&gt;&#39;Login&#39; Encoded and RSA key" style="html=1;verticalAlign=bottom;endArrow=block;curved=0;rounded=0;strokeColor=#457B9D;fontColor=#1D3557;fillColor=#A8DADC;" edge="1" parent="1">
          <mxGeometry width="80" relative="1" as="geometry">
            <mxPoint x="717.5" y="1645" as="sourcePoint" />
            <mxPoint x="997.5" y="1645" as="targetPoint" />
            <mxPoint as="offset" />
          </mxGeometry>
        </mxCell>
        <mxCell id="E5Td9oNzjHZt29u5cTtP-57" value="[Transaction Done Successfully]" style="text;html=1;strokeColor=none;fillColor=none;align=center;verticalAlign=middle;whiteSpace=wrap;rounded=0;fontColor=#1D3557;" vertex="1" parent="1">
          <mxGeometry x="175" y="1139" width="220" height="20" as="geometry" />
        </mxCell>
        <mxCell id="E5Td9oNzjHZt29u5cTtP-61" value="Send Fail &#39;Notification&#39;" style="html=1;verticalAlign=bottom;endArrow=block;curved=0;rounded=0;strokeColor=#457B9D;fontColor=#1D3557;fillColor=#A8DADC;" edge="1" parent="1">
          <mxGeometry width="80" relative="1" as="geometry">
            <mxPoint x="1280" y="1229" as="sourcePoint" />
            <mxPoint x="1000" y="1229" as="targetPoint" />
          </mxGeometry>
        </mxCell>
        <mxCell id="E5Td9oNzjHZt29u5cTtP-62" value="Send Fail &#39;Notification&#39;" style="html=1;verticalAlign=bottom;endArrow=block;curved=0;rounded=0;strokeColor=#457B9D;fontColor=#1D3557;fillColor=#A8DADC;" edge="1" parent="1">
          <mxGeometry width="80" relative="1" as="geometry">
            <mxPoint x="1000" y="1249" as="sourcePoint" />
            <mxPoint x="715" y="1249" as="targetPoint" />
          </mxGeometry>
        </mxCell>
        <mxCell id="E5Td9oNzjHZt29u5cTtP-63" value="Send Fail &#39;Notification&#39;" style="html=1;verticalAlign=bottom;endArrow=block;curved=0;rounded=0;strokeColor=#457B9D;fontColor=#1D3557;fillColor=#A8DADC;" edge="1" parent="1">
          <mxGeometry width="80" relative="1" as="geometry">
            <mxPoint x="720" y="1269" as="sourcePoint" />
            <mxPoint x="435" y="1269" as="targetPoint" />
          </mxGeometry>
        </mxCell>
        <mxCell id="E5Td9oNzjHZt29u5cTtP-64" value="Show Fail &#39;Notification&#39;" style="html=1;verticalAlign=bottom;endArrow=block;curved=0;rounded=0;strokeColor=#457B9D;fontColor=#1D3557;fillColor=#A8DADC;" edge="1" parent="1">
          <mxGeometry width="80" relative="1" as="geometry">
            <mxPoint x="440" y="1299" as="sourcePoint" />
            <mxPoint x="155" y="1299" as="targetPoint" />
          </mxGeometry>
        </mxCell>
        <mxCell id="E5Td9oNzjHZt29u5cTtP-65" value="Edit User Information" style="html=1;verticalAlign=bottom;endArrow=block;curved=0;rounded=0;strokeColor=#457B9D;fontColor=#1D3557;fillColor=#A8DADC;" edge="1" parent="1">
          <mxGeometry width="80" relative="1" as="geometry">
            <mxPoint x="999" y="1677" as="sourcePoint" />
            <mxPoint x="1279" y="1677" as="targetPoint" />
          </mxGeometry>
        </mxCell>
        <mxCell id="E5Td9oNzjHZt29u5cTtP-66" value="Send Fail &#39;Notification&#39;" style="html=1;verticalAlign=bottom;endArrow=block;curved=0;rounded=0;strokeColor=#457B9D;fontColor=#1D3557;fillColor=#A8DADC;" edge="1" parent="1">
          <mxGeometry width="80" relative="1" as="geometry">
            <mxPoint x="1280.5" y="1737" as="sourcePoint" />
            <mxPoint x="1000.5" y="1737" as="targetPoint" />
          </mxGeometry>
        </mxCell>
        <mxCell id="E5Td9oNzjHZt29u5cTtP-67" value="Send Fail &#39;Notification&#39;" style="html=1;verticalAlign=bottom;endArrow=block;curved=0;rounded=0;strokeColor=#457B9D;fontColor=#1D3557;fillColor=#A8DADC;" edge="1" parent="1">
          <mxGeometry width="80" relative="1" as="geometry">
            <mxPoint x="1000.5" y="1757" as="sourcePoint" />
            <mxPoint x="715.5" y="1757" as="targetPoint" />
          </mxGeometry>
        </mxCell>
        <mxCell id="E5Td9oNzjHZt29u5cTtP-68" value="Send Fail &#39;Notification&#39;" style="html=1;verticalAlign=bottom;endArrow=block;curved=0;rounded=0;strokeColor=#457B9D;fontColor=#1D3557;fillColor=#A8DADC;" edge="1" parent="1">
          <mxGeometry width="80" relative="1" as="geometry">
            <mxPoint x="720.5" y="1777" as="sourcePoint" />
            <mxPoint x="435.5" y="1777" as="targetPoint" />
          </mxGeometry>
        </mxCell>
        <mxCell id="E5Td9oNzjHZt29u5cTtP-69" value="Show Fail &#39;Notification&#39;" style="html=1;verticalAlign=bottom;endArrow=block;curved=0;rounded=0;strokeColor=#457B9D;fontColor=#1D3557;fillColor=#A8DADC;" edge="1" parent="1">
          <mxGeometry width="80" relative="1" as="geometry">
            <mxPoint x="440.5" y="1807" as="sourcePoint" />
            <mxPoint x="155.5" y="1807" as="targetPoint" />
          </mxGeometry>
        </mxCell>
        <mxCell id="E5Td9oNzjHZt29u5cTtP-75" value="[Transaction Done Successfully]" style="text;html=1;strokeColor=none;fillColor=none;align=center;verticalAlign=middle;whiteSpace=wrap;rounded=0;fontColor=#1D3557;" vertex="1" parent="1">
          <mxGeometry x="175" y="1655" width="220" height="20" as="geometry" />
        </mxCell>
        <mxCell id="E5Td9oNzjHZt29u5cTtP-79" value="[Changing Nickname]" style="text;align=center;fontStyle=1;verticalAlign=middle;spacingLeft=3;spacingRight=3;strokeColor=none;rotatable=0;points=[[0,0.5],[1,0.5]];portConstraint=eastwest;html=1;fontColor=#1D3557;" vertex="1" parent="1">
          <mxGeometry x="220" y="1330" width="80" height="26" as="geometry" />
        </mxCell>
        <mxCell id="E5Td9oNzjHZt29u5cTtP-80" value="&#39;Change Department&#39; Button Pressed" style="html=1;verticalAlign=bottom;endArrow=block;curved=0;rounded=0;strokeColor=#457B9D;fontColor=#1D3557;fillColor=#A8DADC;" edge="1" parent="1">
          <mxGeometry width="80" relative="1" as="geometry">
            <mxPoint x="160" y="1925" as="sourcePoint" />
            <mxPoint x="440" y="1925" as="targetPoint" />
          </mxGeometry>
        </mxCell>
        <mxCell id="E5Td9oNzjHZt29u5cTtP-82" value="Send request for &#39;Departments&#39; List" style="html=1;verticalAlign=bottom;endArrow=block;curved=0;rounded=0;strokeColor=#457B9D;fontColor=#1D3557;fillColor=#A8DADC;" edge="1" parent="1">
          <mxGeometry width="80" relative="1" as="geometry">
            <mxPoint x="440" y="1956" as="sourcePoint" />
            <mxPoint x="720" y="1956" as="targetPoint" />
          </mxGeometry>
        </mxCell>
        <mxCell id="E5Td9oNzjHZt29u5cTtP-83" value="Get &#39;Departments&#39; List" style="html=1;verticalAlign=bottom;endArrow=block;curved=0;rounded=0;strokeColor=#457B9D;fontColor=#1D3557;fillColor=#A8DADC;" edge="1" parent="1">
          <mxGeometry width="80" relative="1" as="geometry">
            <mxPoint x="720" y="1977" as="sourcePoint" />
            <mxPoint x="1280" y="1977" as="targetPoint" />
          </mxGeometry>
        </mxCell>
        <mxCell id="E5Td9oNzjHZt29u5cTtP-84" value="Send &#39;Departments&#39; List" style="html=1;verticalAlign=bottom;endArrow=block;curved=0;rounded=0;strokeColor=#457B9D;fontColor=#1D3557;fillColor=#A8DADC;" edge="1" parent="1">
          <mxGeometry width="80" relative="1" as="geometry">
            <mxPoint x="1280" y="2071" as="sourcePoint" />
            <mxPoint x="720" y="2071" as="targetPoint" />
          </mxGeometry>
        </mxCell>
        <mxCell id="E5Td9oNzjHZt29u5cTtP-85" value="Form &#39;Departments&#39; List" style="html=1;verticalAlign=bottom;endArrow=block;curved=0;rounded=0;strokeColor=#457B9D;fontColor=#1D3557;fillColor=#A8DADC;" edge="1" parent="1">
          <mxGeometry width="80" relative="1" as="geometry">
            <mxPoint x="1280" y="1991" as="sourcePoint" />
            <mxPoint x="1280" y="2051" as="targetPoint" />
            <Array as="points">
              <mxPoint x="1360" y="1991" />
              <mxPoint x="1360" y="2051" />
            </Array>
          </mxGeometry>
        </mxCell>
        <mxCell id="E5Td9oNzjHZt29u5cTtP-86" value="Send &#39;Departments&#39; List" style="html=1;verticalAlign=bottom;endArrow=block;curved=0;rounded=0;strokeColor=#457B9D;fontColor=#1D3557;fillColor=#A8DADC;" edge="1" parent="1">
          <mxGeometry width="80" relative="1" as="geometry">
            <mxPoint x="720" y="2092" as="sourcePoint" />
            <mxPoint x="440" y="2092" as="targetPoint" />
          </mxGeometry>
        </mxCell>
        <mxCell id="E5Td9oNzjHZt29u5cTtP-89" value="" style="html=1;points=[[0,0,0,0,5],[0,1,0,0,-5],[1,0,0,0,5],[1,1,0,0,-5]];perimeter=orthogonalPerimeter;outlineConnect=0;targetShapes=umlLifeline;portConstraint=eastwest;newEdgeStyle={&quot;curved&quot;:0,&quot;rounded&quot;:0};strokeColor=#457B9D;fontColor=#1D3557;fillColor=#A8DADC;" vertex="1" parent="1">
          <mxGeometry x="1275" y="1991" width="10" height="60" as="geometry" />
        </mxCell>
        <mxCell id="E5Td9oNzjHZt29u5cTtP-90" value="Show Available &#39;Departments&#39; List" style="html=1;verticalAlign=bottom;endArrow=block;curved=0;rounded=0;strokeColor=#457B9D;fontColor=#1D3557;fillColor=#A8DADC;" edge="1" parent="1">
          <mxGeometry width="80" relative="1" as="geometry">
            <mxPoint x="440" y="2125" as="sourcePoint" />
            <mxPoint x="160" y="2125" as="targetPoint" />
          </mxGeometry>
        </mxCell>
        <mxCell id="E5Td9oNzjHZt29u5cTtP-91" value="Pick New &#39;Department&#39; from list" style="html=1;verticalAlign=bottom;endArrow=block;curved=0;rounded=0;strokeColor=#457B9D;fontColor=#1D3557;fillColor=#A8DADC;" edge="1" parent="1">
          <mxGeometry width="80" relative="1" as="geometry">
            <mxPoint x="160" y="2165" as="sourcePoint" />
            <mxPoint x="440" y="2165" as="targetPoint" />
          </mxGeometry>
        </mxCell>
        <mxCell id="E5Td9oNzjHZt29u5cTtP-92" value="Press &#39;Save&#39; Button" style="html=1;verticalAlign=bottom;endArrow=block;curved=0;rounded=0;strokeColor=#457B9D;fontColor=#1D3557;fillColor=#A8DADC;" edge="1" parent="1">
          <mxGeometry width="80" relative="1" as="geometry">
            <mxPoint x="160" y="2205" as="sourcePoint" />
            <mxPoint x="440" y="2205" as="targetPoint" />
          </mxGeometry>
        </mxCell>
        <mxCell id="E5Td9oNzjHZt29u5cTtP-93" value="Send new &#39;Department&#39; and user &#39;Login&#39;" style="html=1;verticalAlign=bottom;endArrow=block;curved=0;rounded=0;strokeColor=#457B9D;fontColor=#1D3557;fillColor=#A8DADC;" edge="1" parent="1">
          <mxGeometry width="80" relative="1" as="geometry">
            <mxPoint x="440" y="2245" as="sourcePoint" />
            <mxPoint x="720" y="2245" as="targetPoint" />
            <mxPoint as="offset" />
          </mxGeometry>
        </mxCell>
        <mxCell id="E5Td9oNzjHZt29u5cTtP-95" value="Send new &#39;Department&#39; and user &lt;br&gt;&#39;Login&#39; Encoded and RSA key" style="html=1;verticalAlign=bottom;endArrow=block;curved=0;rounded=0;strokeColor=#457B9D;fontColor=#1D3557;fillColor=#A8DADC;" edge="1" parent="1">
          <mxGeometry width="80" relative="1" as="geometry">
            <mxPoint x="720" y="2400" as="sourcePoint" />
            <mxPoint x="1000" y="2400" as="targetPoint" />
            <mxPoint as="offset" />
          </mxGeometry>
        </mxCell>
        <mxCell id="E5Td9oNzjHZt29u5cTtP-97" value="Edit User Information" style="html=1;verticalAlign=bottom;endArrow=block;curved=0;rounded=0;strokeColor=#457B9D;fontColor=#1D3557;fillColor=#A8DADC;" edge="1" parent="1">
          <mxGeometry width="80" relative="1" as="geometry">
            <mxPoint x="997.5" y="2440" as="sourcePoint" />
            <mxPoint x="1277.5" y="2440" as="targetPoint" />
          </mxGeometry>
        </mxCell>
        <mxCell id="E5Td9oNzjHZt29u5cTtP-98" value="Send Notification &lt;br&gt;to Task Manager to Unlogin &lt;br&gt;Edited User&amp;nbsp;" style="html=1;verticalAlign=bottom;endArrow=block;curved=0;rounded=0;strokeColor=#457B9D;fontColor=#1D3557;fillColor=#A8DADC;" edge="1" parent="1">
          <mxGeometry width="80" relative="1" as="geometry">
            <mxPoint x="1277.5" y="2462.5" as="sourcePoint" />
            <mxPoint x="1557.5" y="2462.5" as="targetPoint" />
          </mxGeometry>
        </mxCell>
        <mxCell id="E5Td9oNzjHZt29u5cTtP-99" value="Send Fail &#39;Notification&#39;" style="html=1;verticalAlign=bottom;endArrow=block;curved=0;rounded=0;strokeColor=#457B9D;fontColor=#1D3557;fillColor=#A8DADC;" edge="1" parent="1">
          <mxGeometry width="80" relative="1" as="geometry">
            <mxPoint x="1277.5" y="2510" as="sourcePoint" />
            <mxPoint x="997.5" y="2510" as="targetPoint" />
          </mxGeometry>
        </mxCell>
        <mxCell id="E5Td9oNzjHZt29u5cTtP-100" value="Send Fail &#39;Notification&#39;" style="html=1;verticalAlign=bottom;endArrow=block;curved=0;rounded=0;strokeColor=#457B9D;fontColor=#1D3557;fillColor=#A8DADC;" edge="1" parent="1">
          <mxGeometry width="80" relative="1" as="geometry">
            <mxPoint x="997.5" y="2530" as="sourcePoint" />
            <mxPoint x="712.5" y="2530" as="targetPoint" />
          </mxGeometry>
        </mxCell>
        <mxCell id="E5Td9oNzjHZt29u5cTtP-101" value="Send Fail &#39;Notification&#39;" style="html=1;verticalAlign=bottom;endArrow=block;curved=0;rounded=0;strokeColor=#457B9D;fontColor=#1D3557;fillColor=#A8DADC;" edge="1" parent="1">
          <mxGeometry width="80" relative="1" as="geometry">
            <mxPoint x="717.5" y="2550" as="sourcePoint" />
            <mxPoint x="432.5" y="2550" as="targetPoint" />
          </mxGeometry>
        </mxCell>
        <mxCell id="E5Td9oNzjHZt29u5cTtP-102" value="Show Fail &#39;Notification&#39;" style="html=1;verticalAlign=bottom;endArrow=block;curved=0;rounded=0;strokeColor=#457B9D;fontColor=#1D3557;fillColor=#A8DADC;" edge="1" parent="1">
          <mxGeometry width="80" relative="1" as="geometry">
            <mxPoint x="437.5" y="2580" as="sourcePoint" />
            <mxPoint x="152.5" y="2580" as="targetPoint" />
          </mxGeometry>
        </mxCell>
        <mxCell id="E5Td9oNzjHZt29u5cTtP-104" value="[Changing Department]" style="text;align=center;fontStyle=1;verticalAlign=middle;spacingLeft=3;spacingRight=3;strokeColor=none;rotatable=0;points=[[0,0.5],[1,0.5]];portConstraint=eastwest;html=1;fontColor=#1D3557;" vertex="1" parent="1">
          <mxGeometry x="230" y="1870" width="80" height="26" as="geometry" />
        </mxCell>
        <mxCell id="E5Td9oNzjHZt29u5cTtP-106" value="[Transaction Done Successfully]" style="text;html=1;strokeColor=none;fillColor=none;align=center;verticalAlign=middle;whiteSpace=wrap;rounded=0;fontColor=#1D3557;" vertex="1" parent="1">
          <mxGeometry x="175" y="2414" width="220" height="20" as="geometry" />
        </mxCell>
        <mxCell id="E5Td9oNzjHZt29u5cTtP-110" value="&#39;Change Password&#39; Button Pressed" style="html=1;verticalAlign=bottom;endArrow=block;curved=0;rounded=0;strokeColor=#457B9D;fontColor=#1D3557;fillColor=#A8DADC;" edge="1" parent="1">
          <mxGeometry width="80" relative="1" as="geometry">
            <mxPoint x="160" y="2690" as="sourcePoint" />
            <mxPoint x="440" y="2690" as="targetPoint" />
          </mxGeometry>
        </mxCell>
        <mxCell id="E5Td9oNzjHZt29u5cTtP-111" value="Show &#39;Change Password&#39; Field" style="html=1;verticalAlign=bottom;endArrow=block;curved=0;rounded=0;strokeColor=#457B9D;fontColor=#1D3557;fillColor=#A8DADC;" edge="1" parent="1">
          <mxGeometry width="80" relative="1" as="geometry">
            <mxPoint x="440" y="2730" as="sourcePoint" />
            <mxPoint x="160" y="2730" as="targetPoint" />
          </mxGeometry>
        </mxCell>
        <mxCell id="E5Td9oNzjHZt29u5cTtP-112" value="Enter &#39;New Password&#39;" style="html=1;verticalAlign=bottom;endArrow=block;curved=0;rounded=0;strokeColor=#457B9D;fontColor=#1D3557;fillColor=#A8DADC;" edge="1" parent="1">
          <mxGeometry width="80" relative="1" as="geometry">
            <mxPoint x="160" y="2770" as="sourcePoint" />
            <mxPoint x="440" y="2770" as="targetPoint" />
          </mxGeometry>
        </mxCell>
        <mxCell id="E5Td9oNzjHZt29u5cTtP-113" value="Send new &#39;Password&#39; and user &#39;Login&#39;" style="html=1;verticalAlign=bottom;endArrow=block;curved=0;rounded=0;strokeColor=#457B9D;fontColor=#1D3557;fillColor=#A8DADC;" edge="1" parent="1">
          <mxGeometry width="80" relative="1" as="geometry">
            <mxPoint x="440" y="2810" as="sourcePoint" />
            <mxPoint x="720" y="2810" as="targetPoint" />
            <mxPoint as="offset" />
          </mxGeometry>
        </mxCell>
        <mxCell id="E5Td9oNzjHZt29u5cTtP-114" value="Send new &#39;Password&#39; and user &lt;br&gt;&#39;Login&#39; Encoded and RSA key" style="html=1;verticalAlign=bottom;endArrow=block;curved=0;rounded=0;strokeColor=#457B9D;fontColor=#1D3557;fillColor=#A8DADC;" edge="1" parent="1">
          <mxGeometry width="80" relative="1" as="geometry">
            <mxPoint x="720" y="2970" as="sourcePoint" />
            <mxPoint x="1000" y="2970" as="targetPoint" />
            <mxPoint as="offset" />
          </mxGeometry>
        </mxCell>
        <mxCell id="E5Td9oNzjHZt29u5cTtP-125" value="Edit User Information" style="html=1;verticalAlign=bottom;endArrow=block;curved=0;rounded=0;strokeColor=#457B9D;fontColor=#1D3557;fillColor=#A8DADC;" edge="1" parent="1">
          <mxGeometry width="80" relative="1" as="geometry">
            <mxPoint x="1000.5" y="3000" as="sourcePoint" />
            <mxPoint x="1280.5" y="3000" as="targetPoint" />
          </mxGeometry>
        </mxCell>
        <mxCell id="E5Td9oNzjHZt29u5cTtP-126" value="Send Notification &lt;br&gt;to Task Manager to Unlogin &lt;br&gt;Edited User&amp;nbsp;" style="html=1;verticalAlign=bottom;endArrow=block;curved=0;rounded=0;strokeColor=#457B9D;fontColor=#1D3557;fillColor=#A8DADC;" edge="1" parent="1">
          <mxGeometry width="80" relative="1" as="geometry">
            <mxPoint x="1280.5" y="3022.5" as="sourcePoint" />
            <mxPoint x="1560.5" y="3022.5" as="targetPoint" />
          </mxGeometry>
        </mxCell>
        <mxCell id="E5Td9oNzjHZt29u5cTtP-127" value="Send Fail &#39;Notification&#39;" style="html=1;verticalAlign=bottom;endArrow=block;curved=0;rounded=0;strokeColor=#457B9D;fontColor=#1D3557;fillColor=#A8DADC;" edge="1" parent="1">
          <mxGeometry width="80" relative="1" as="geometry">
            <mxPoint x="1280.5" y="3070" as="sourcePoint" />
            <mxPoint x="1000.5" y="3070" as="targetPoint" />
          </mxGeometry>
        </mxCell>
        <mxCell id="E5Td9oNzjHZt29u5cTtP-128" value="Send Fail &#39;Notification&#39;" style="html=1;verticalAlign=bottom;endArrow=block;curved=0;rounded=0;strokeColor=#457B9D;fontColor=#1D3557;fillColor=#A8DADC;" edge="1" parent="1">
          <mxGeometry width="80" relative="1" as="geometry">
            <mxPoint x="1000.5" y="3090" as="sourcePoint" />
            <mxPoint x="715.5" y="3090" as="targetPoint" />
          </mxGeometry>
        </mxCell>
        <mxCell id="E5Td9oNzjHZt29u5cTtP-129" value="Send Fail &#39;Notification&#39;" style="html=1;verticalAlign=bottom;endArrow=block;curved=0;rounded=0;strokeColor=#457B9D;fontColor=#1D3557;fillColor=#A8DADC;" edge="1" parent="1">
          <mxGeometry width="80" relative="1" as="geometry">
            <mxPoint x="720.5" y="3110" as="sourcePoint" />
            <mxPoint x="435.5" y="3110" as="targetPoint" />
          </mxGeometry>
        </mxCell>
        <mxCell id="E5Td9oNzjHZt29u5cTtP-130" value="Show Fail &#39;Notification&#39;" style="html=1;verticalAlign=bottom;endArrow=block;curved=0;rounded=0;strokeColor=#457B9D;fontColor=#1D3557;fillColor=#A8DADC;" edge="1" parent="1">
          <mxGeometry width="80" relative="1" as="geometry">
            <mxPoint x="440.5" y="3140" as="sourcePoint" />
            <mxPoint x="155.5" y="3140" as="targetPoint" />
          </mxGeometry>
        </mxCell>
        <mxCell id="E5Td9oNzjHZt29u5cTtP-132" value="[Transaction Done Successfully]" style="text;html=1;strokeColor=none;fillColor=none;align=center;verticalAlign=middle;whiteSpace=wrap;rounded=0;fontColor=#1D3557;" vertex="1" parent="1">
          <mxGeometry x="175" y="2974" width="220" height="20" as="geometry" />
        </mxCell>
        <mxCell id="E5Td9oNzjHZt29u5cTtP-136" value="[Changing Password]" style="text;align=center;fontStyle=1;verticalAlign=middle;spacingLeft=3;spacingRight=3;strokeColor=none;rotatable=0;points=[[0,0.5],[1,0.5]];portConstraint=eastwest;html=1;fontColor=#1D3557;" vertex="1" parent="1">
          <mxGeometry x="230" y="2625" width="80" height="26" as="geometry" />
        </mxCell>
        <mxCell id="E5Td9oNzjHZt29u5cTtP-138" value="" style="endArrow=none;dashed=1;html=1;dashPattern=1 3;strokeWidth=2;rounded=0;strokeColor=#457B9D;fontColor=#1D3557;fillColor=#A8DADC;entryX=0.5;entryY=0.5;entryDx=0;entryDy=0;entryPerimeter=0;" edge="1" parent="1" source="E5Td9oNzjHZt29u5cTtP-150" target="E5Td9oNzjHZt29u5cTtP-137">
          <mxGeometry width="50" height="50" relative="1" as="geometry">
            <mxPoint x="160" y="3240" as="sourcePoint" />
            <mxPoint x="160" y="90" as="targetPoint" />
          </mxGeometry>
        </mxCell>
        <mxCell id="E5Td9oNzjHZt29u5cTtP-137" value="" style="html=1;points=[[0,0,0,0,5],[0,1,0,0,-5],[1,0,0,0,5],[1,1,0,0,-5]];perimeter=orthogonalPerimeter;outlineConnect=0;targetShapes=umlLifeline;portConstraint=eastwest;newEdgeStyle={&quot;curved&quot;:0,&quot;rounded&quot;:0};strokeColor=#457B9D;fontColor=#1D3557;fillColor=#A8DADC;" vertex="1" parent="1">
          <mxGeometry x="155" y="200" width="10" height="320" as="geometry" />
        </mxCell>
        <mxCell id="E5Td9oNzjHZt29u5cTtP-140" value="" style="endArrow=none;dashed=1;html=1;dashPattern=1 3;strokeWidth=2;rounded=0;strokeColor=#457B9D;fontColor=#1D3557;fillColor=#A8DADC;entryX=0.571;entryY=1;entryDx=0;entryDy=0;entryPerimeter=0;" edge="1" parent="1" source="E5Td9oNzjHZt29u5cTtP-147" target="E5Td9oNzjHZt29u5cTtP-139">
          <mxGeometry width="50" height="50" relative="1" as="geometry">
            <mxPoint x="440" y="3240" as="sourcePoint" />
            <mxPoint x="440" y="120" as="targetPoint" />
          </mxGeometry>
        </mxCell>
        <mxCell id="E5Td9oNzjHZt29u5cTtP-139" value="" style="html=1;points=[[0,0,0,0,5],[0,1,0,0,-5],[1,0,0,0,5],[1,1,0,0,-5]];perimeter=orthogonalPerimeter;outlineConnect=0;targetShapes=umlLifeline;portConstraint=eastwest;newEdgeStyle={&quot;curved&quot;:0,&quot;rounded&quot;:0};strokeColor=#457B9D;fontColor=#1D3557;fillColor=#A8DADC;" vertex="1" parent="1">
          <mxGeometry x="435" y="220" width="10" height="280" as="geometry" />
        </mxCell>
        <mxCell id="E5Td9oNzjHZt29u5cTtP-142" value="" style="endArrow=none;dashed=1;html=1;dashPattern=1 3;strokeWidth=2;rounded=0;strokeColor=#457B9D;fontColor=#1D3557;fillColor=#A8DADC;entryX=0.467;entryY=1.014;entryDx=0;entryDy=0;entryPerimeter=0;" edge="1" parent="1" source="E5Td9oNzjHZt29u5cTtP-143" target="E5Td9oNzjHZt29u5cTtP-141">
          <mxGeometry width="50" height="50" relative="1" as="geometry">
            <mxPoint x="718" y="3240" as="sourcePoint" />
            <mxPoint x="718" y="121" as="targetPoint" />
          </mxGeometry>
        </mxCell>
        <mxCell id="E5Td9oNzjHZt29u5cTtP-141" value="" style="html=1;points=[[0,0,0,0,5],[0,1,0,0,-5],[1,0,0,0,5],[1,1,0,0,-5]];perimeter=orthogonalPerimeter;outlineConnect=0;targetShapes=umlLifeline;portConstraint=eastwest;newEdgeStyle={&quot;curved&quot;:0,&quot;rounded&quot;:0};strokeColor=#457B9D;fontColor=#1D3557;fillColor=#A8DADC;" vertex="1" parent="1">
          <mxGeometry x="715" y="240" width="10" height="140" as="geometry" />
        </mxCell>
        <mxCell id="E5Td9oNzjHZt29u5cTtP-144" value="" style="endArrow=none;dashed=1;html=1;dashPattern=1 3;strokeWidth=2;rounded=0;strokeColor=#457B9D;fontColor=#1D3557;fillColor=#A8DADC;entryX=0.467;entryY=1.014;entryDx=0;entryDy=0;entryPerimeter=0;" edge="1" parent="1" source="E5Td9oNzjHZt29u5cTtP-155" target="E5Td9oNzjHZt29u5cTtP-143">
          <mxGeometry width="50" height="50" relative="1" as="geometry">
            <mxPoint x="718" y="3240" as="sourcePoint" />
            <mxPoint x="720" y="382" as="targetPoint" />
          </mxGeometry>
        </mxCell>
        <mxCell id="E5Td9oNzjHZt29u5cTtP-143" value="" style="html=1;points=[[0,0,0,0,5],[0,1,0,0,-5],[1,0,0,0,5],[1,1,0,0,-5]];perimeter=orthogonalPerimeter;outlineConnect=0;targetShapes=umlLifeline;portConstraint=eastwest;newEdgeStyle={&quot;curved&quot;:0,&quot;rounded&quot;:0};strokeColor=#457B9D;fontColor=#1D3557;fillColor=#A8DADC;" vertex="1" parent="1">
          <mxGeometry x="715" y="400" width="10" height="80" as="geometry" />
        </mxCell>
        <mxCell id="E5Td9oNzjHZt29u5cTtP-18" value="Decode &#39;Logins&#39; list&amp;nbsp;with its &#39;Nicknames&#39;, &lt;br&gt;&#39;Roles&#39; and &#39;Department&#39;&amp;nbsp;using RSA keys" style="html=1;verticalAlign=bottom;endArrow=block;curved=0;rounded=0;strokeColor=#457B9D;fontColor=#1D3557;fillColor=#A8DADC;" edge="1" parent="1">
          <mxGeometry x="0.0833" width="80" relative="1" as="geometry">
            <mxPoint x="720" y="400" as="sourcePoint" />
            <mxPoint x="720" y="480" as="targetPoint" />
            <Array as="points">
              <mxPoint x="800" y="400" />
              <mxPoint x="800" y="480" />
            </Array>
            <mxPoint as="offset" />
          </mxGeometry>
        </mxCell>
        <mxCell id="E5Td9oNzjHZt29u5cTtP-146" value="" style="html=1;verticalAlign=bottom;endArrow=block;curved=0;rounded=0;strokeColor=#457B9D;fontColor=#1D3557;fillColor=#A8DADC;" edge="1" parent="1" target="E5Td9oNzjHZt29u5cTtP-145">
          <mxGeometry x="0.0769" width="80" relative="1" as="geometry">
            <mxPoint x="1280" y="260" as="sourcePoint" />
            <mxPoint x="1280" y="360" as="targetPoint" />
            <Array as="points" />
            <mxPoint as="offset" />
          </mxGeometry>
        </mxCell>
        <mxCell id="E5Td9oNzjHZt29u5cTtP-145" value="" style="html=1;points=[[0,0,0,0,5],[0,1,0,0,-5],[1,0,0,0,5],[1,1,0,0,-5]];perimeter=orthogonalPerimeter;outlineConnect=0;targetShapes=umlLifeline;portConstraint=eastwest;newEdgeStyle={&quot;curved&quot;:0,&quot;rounded&quot;:0};strokeColor=#457B9D;fontColor=#1D3557;fillColor=#A8DADC;" vertex="1" parent="1">
          <mxGeometry x="1275" y="260" width="10" height="90" as="geometry" />
        </mxCell>
        <mxCell id="E5Td9oNzjHZt29u5cTtP-16" value="Form Encoded &#39;Logins&#39; list&amp;nbsp;with its &#39;Nicknames&#39;,&lt;br&gt;&amp;nbsp;&#39;Roles&#39; and &#39;Department&#39; and&lt;br&gt;&amp;nbsp;RSA keys" style="html=1;verticalAlign=bottom;endArrow=block;curved=0;rounded=0;strokeColor=#457B9D;fontColor=#1D3557;fillColor=#A8DADC;" edge="1" parent="1" source="E5Td9oNzjHZt29u5cTtP-145">
          <mxGeometry x="0.0769" width="80" relative="1" as="geometry">
            <mxPoint x="1280" y="260" as="sourcePoint" />
            <mxPoint x="1280" y="360" as="targetPoint" />
            <Array as="points">
              <mxPoint x="1360" y="260" />
              <mxPoint x="1360" y="360" />
            </Array>
            <mxPoint as="offset" />
          </mxGeometry>
        </mxCell>
        <mxCell id="E5Td9oNzjHZt29u5cTtP-148" value="" style="endArrow=none;dashed=1;html=1;dashPattern=1 3;strokeWidth=2;rounded=0;strokeColor=#457B9D;fontColor=#1D3557;fillColor=#A8DADC;entryX=0.571;entryY=1;entryDx=0;entryDy=0;entryPerimeter=0;" edge="1" parent="1" source="E5Td9oNzjHZt29u5cTtP-154" target="E5Td9oNzjHZt29u5cTtP-147">
          <mxGeometry width="50" height="50" relative="1" as="geometry">
            <mxPoint x="440" y="3240" as="sourcePoint" />
            <mxPoint x="441" y="500" as="targetPoint" />
          </mxGeometry>
        </mxCell>
        <mxCell id="E5Td9oNzjHZt29u5cTtP-147" value="" style="html=1;points=[[0,0,0,0,5],[0,1,0,0,-5],[1,0,0,0,5],[1,1,0,0,-5]];perimeter=orthogonalPerimeter;outlineConnect=0;targetShapes=umlLifeline;portConstraint=eastwest;newEdgeStyle={&quot;curved&quot;:0,&quot;rounded&quot;:0};strokeColor=#457B9D;fontColor=#1D3557;fillColor=#A8DADC;" vertex="1" parent="1">
          <mxGeometry x="435" y="560" width="10" height="60" as="geometry" />
        </mxCell>
        <mxCell id="E5Td9oNzjHZt29u5cTtP-149" value="" style="endArrow=none;dashed=1;html=1;dashPattern=1 3;strokeWidth=2;rounded=0;strokeColor=#457B9D;fontColor=#1D3557;fillColor=#A8DADC;entryX=0.5;entryY=0.5;entryDx=0;entryDy=0;entryPerimeter=0;" edge="1" parent="1" source="E5Td9oNzjHZt29u5cTtP-151" target="E5Td9oNzjHZt29u5cTtP-150">
          <mxGeometry width="50" height="50" relative="1" as="geometry">
            <mxPoint x="160" y="3240" as="sourcePoint" />
            <mxPoint x="160" y="360" as="targetPoint" />
          </mxGeometry>
        </mxCell>
        <mxCell id="E5Td9oNzjHZt29u5cTtP-150" value="" style="html=1;points=[[0,0,0,0,5],[0,1,0,0,-5],[1,0,0,0,5],[1,1,0,0,-5]];perimeter=orthogonalPerimeter;outlineConnect=0;targetShapes=umlLifeline;portConstraint=eastwest;newEdgeStyle={&quot;curved&quot;:0,&quot;rounded&quot;:0};strokeColor=#457B9D;fontColor=#1D3557;fillColor=#A8DADC;" vertex="1" parent="1">
          <mxGeometry x="155" y="700" width="10" height="180" as="geometry" />
        </mxCell>
        <mxCell id="E5Td9oNzjHZt29u5cTtP-152" value="" style="endArrow=none;dashed=1;html=1;dashPattern=1 3;strokeWidth=2;rounded=0;strokeColor=#457B9D;fontColor=#1D3557;fillColor=#A8DADC;entryX=0.5;entryY=0.5;entryDx=0;entryDy=0;entryPerimeter=0;" edge="1" parent="1" source="E5Td9oNzjHZt29u5cTtP-163" target="E5Td9oNzjHZt29u5cTtP-151">
          <mxGeometry width="50" height="50" relative="1" as="geometry">
            <mxPoint x="160" y="3240" as="sourcePoint" />
            <mxPoint x="160" y="790" as="targetPoint" />
          </mxGeometry>
        </mxCell>
        <mxCell id="E5Td9oNzjHZt29u5cTtP-151" value="" style="html=1;points=[[0,0,0,0,5],[0,1,0,0,-5],[1,0,0,0,5],[1,1,0,0,-5]];perimeter=orthogonalPerimeter;outlineConnect=0;targetShapes=umlLifeline;portConstraint=eastwest;newEdgeStyle={&quot;curved&quot;:0,&quot;rounded&quot;:0};strokeColor=#457B9D;fontColor=#1D3557;fillColor=#A8DADC;" vertex="1" parent="1">
          <mxGeometry x="155" y="920" width="10" height="380" as="geometry" />
        </mxCell>
        <mxCell id="E5Td9oNzjHZt29u5cTtP-59" value="[Transaction Fail]" style="text;html=1;strokeColor=none;fillColor=none;align=center;verticalAlign=middle;whiteSpace=wrap;rounded=0;fontColor=#1D3557;" vertex="1" parent="1">
          <mxGeometry x="80" y="1230" width="220" height="20" as="geometry" />
        </mxCell>
        <mxCell id="E5Td9oNzjHZt29u5cTtP-153" value="" style="endArrow=none;dashed=1;html=1;dashPattern=1 3;strokeWidth=2;rounded=0;strokeColor=#457B9D;fontColor=#1D3557;fillColor=#A8DADC;entryX=0.571;entryY=1;entryDx=0;entryDy=0;entryPerimeter=0;" edge="1" parent="1" source="E5Td9oNzjHZt29u5cTtP-165" target="E5Td9oNzjHZt29u5cTtP-154">
          <mxGeometry width="50" height="50" relative="1" as="geometry">
            <mxPoint x="440" y="3240" as="sourcePoint" />
            <mxPoint x="441" y="620" as="targetPoint" />
          </mxGeometry>
        </mxCell>
        <mxCell id="E5Td9oNzjHZt29u5cTtP-154" value="" style="html=1;points=[[0,0,0,0,5],[0,1,0,0,-5],[1,0,0,0,5],[1,1,0,0,-5]];perimeter=orthogonalPerimeter;outlineConnect=0;targetShapes=umlLifeline;portConstraint=eastwest;newEdgeStyle={&quot;curved&quot;:0,&quot;rounded&quot;:0};strokeColor=#457B9D;fontColor=#1D3557;fillColor=#A8DADC;" vertex="1" parent="1">
          <mxGeometry x="435" y="960" width="10" height="300" as="geometry" />
        </mxCell>
        <mxCell id="E5Td9oNzjHZt29u5cTtP-156" value="" style="endArrow=none;dashed=1;html=1;dashPattern=1 3;strokeWidth=2;rounded=0;strokeColor=#457B9D;fontColor=#1D3557;fillColor=#A8DADC;entryX=0.467;entryY=1.014;entryDx=0;entryDy=0;entryPerimeter=0;" edge="1" parent="1" source="E5Td9oNzjHZt29u5cTtP-158" target="E5Td9oNzjHZt29u5cTtP-155">
          <mxGeometry width="50" height="50" relative="1" as="geometry">
            <mxPoint x="718" y="3240" as="sourcePoint" />
            <mxPoint x="720" y="481" as="targetPoint" />
          </mxGeometry>
        </mxCell>
        <mxCell id="E5Td9oNzjHZt29u5cTtP-155" value="" style="html=1;points=[[0,0,0,0,5],[0,1,0,0,-5],[1,0,0,0,5],[1,1,0,0,-5]];perimeter=orthogonalPerimeter;outlineConnect=0;targetShapes=umlLifeline;portConstraint=eastwest;newEdgeStyle={&quot;curved&quot;:0,&quot;rounded&quot;:0};strokeColor=#457B9D;fontColor=#1D3557;fillColor=#A8DADC;" vertex="1" parent="1">
          <mxGeometry x="715" y="1010" width="10" height="90" as="geometry" />
        </mxCell>
        <mxCell id="E5Td9oNzjHZt29u5cTtP-116" value="Encode &#39;Role&#39; and &#39;Login&#39; using RSA" style="html=1;verticalAlign=bottom;endArrow=block;curved=0;rounded=0;strokeColor=#457B9D;fontColor=#1D3557;fillColor=#A8DADC;" edge="1" parent="1">
          <mxGeometry width="80" relative="1" as="geometry">
            <mxPoint x="720" y="1010" as="sourcePoint" />
            <mxPoint x="720" y="1100" as="targetPoint" />
            <Array as="points">
              <mxPoint x="800" y="1010" />
              <mxPoint x="800" y="1100" />
            </Array>
            <mxPoint as="offset" />
          </mxGeometry>
        </mxCell>
        <mxCell id="E5Td9oNzjHZt29u5cTtP-157" value="" style="endArrow=none;dashed=1;html=1;dashPattern=1 3;strokeWidth=2;rounded=0;strokeColor=#457B9D;fontColor=#1D3557;fillColor=#A8DADC;entryX=0.467;entryY=1.014;entryDx=0;entryDy=0;entryPerimeter=0;" edge="1" parent="1" source="E5Td9oNzjHZt29u5cTtP-167" target="E5Td9oNzjHZt29u5cTtP-158">
          <mxGeometry width="50" height="50" relative="1" as="geometry">
            <mxPoint x="718" y="3240" as="sourcePoint" />
            <mxPoint x="720" y="1101" as="targetPoint" />
          </mxGeometry>
        </mxCell>
        <mxCell id="E5Td9oNzjHZt29u5cTtP-158" value="" style="html=1;points=[[0,0,0,0,5],[0,1,0,0,-5],[1,0,0,0,5],[1,1,0,0,-5]];perimeter=orthogonalPerimeter;outlineConnect=0;targetShapes=umlLifeline;portConstraint=eastwest;newEdgeStyle={&quot;curved&quot;:0,&quot;rounded&quot;:0};strokeColor=#457B9D;fontColor=#1D3557;fillColor=#A8DADC;" vertex="1" parent="1">
          <mxGeometry x="715" y="1130" width="10" height="110" as="geometry" />
        </mxCell>
        <mxCell id="E5Td9oNzjHZt29u5cTtP-160" value="" style="endArrow=none;dashed=1;html=1;dashPattern=1 3;strokeWidth=2;rounded=0;strokeColor=#457B9D;fontColor=#1D3557;fillColor=#A8DADC;entryX=0.517;entryY=1.014;entryDx=0;entryDy=0;entryPerimeter=0;" edge="1" parent="1" source="E5Td9oNzjHZt29u5cTtP-171" target="E5Td9oNzjHZt29u5cTtP-159">
          <mxGeometry width="50" height="50" relative="1" as="geometry">
            <mxPoint x="1001" y="3240" as="sourcePoint" />
            <mxPoint x="1001" y="121" as="targetPoint" />
          </mxGeometry>
        </mxCell>
        <mxCell id="E5Td9oNzjHZt29u5cTtP-159" value="" style="html=1;points=[[0,0,0,0,5],[0,1,0,0,-5],[1,0,0,0,5],[1,1,0,0,-5]];perimeter=orthogonalPerimeter;outlineConnect=0;targetShapes=umlLifeline;portConstraint=eastwest;newEdgeStyle={&quot;curved&quot;:0,&quot;rounded&quot;:0};strokeColor=#457B9D;fontColor=#1D3557;fillColor=#A8DADC;" vertex="1" parent="1">
          <mxGeometry x="995" y="1129" width="10" height="101" as="geometry" />
        </mxCell>
        <mxCell id="E5Td9oNzjHZt29u5cTtP-56" value="Alt" style="shape=umlFrame;whiteSpace=wrap;html=1;pointerEvents=0;strokeColor=#457B9D;fontColor=#1D3557;fillColor=#A8DADC;" vertex="1" parent="1">
          <mxGeometry x="130" y="1139" width="1450" height="171" as="geometry" />
        </mxCell>
        <mxCell id="E5Td9oNzjHZt29u5cTtP-161" value="" style="html=1;points=[[0,0,0,0,5],[0,1,0,0,-5],[1,0,0,0,5],[1,1,0,0,-5]];perimeter=orthogonalPerimeter;outlineConnect=0;targetShapes=umlLifeline;portConstraint=eastwest;newEdgeStyle={&quot;curved&quot;:0,&quot;rounded&quot;:0};strokeColor=#457B9D;fontColor=#1D3557;fillColor=#A8DADC;" vertex="1" parent="1">
          <mxGeometry x="1275" y="1160" width="10" height="20" as="geometry" />
        </mxCell>
        <mxCell id="E5Td9oNzjHZt29u5cTtP-58" value="" style="endArrow=none;dashed=1;html=1;rounded=0;strokeColor=#457B9D;fontColor=#1D3557;fillColor=#A8DADC;entryX=1.001;entryY=0.347;entryDx=0;entryDy=0;entryPerimeter=0;" edge="1" parent="1" target="E5Td9oNzjHZt29u5cTtP-56">
          <mxGeometry width="50" height="50" relative="1" as="geometry">
            <mxPoint x="130" y="1199" as="sourcePoint" />
            <mxPoint x="300" y="1159" as="targetPoint" />
          </mxGeometry>
        </mxCell>
        <mxCell id="E5Td9oNzjHZt29u5cTtP-162" value="" style="endArrow=none;dashed=1;html=1;dashPattern=1 3;strokeWidth=2;rounded=0;strokeColor=#457B9D;fontColor=#1D3557;fillColor=#A8DADC;entryX=0.5;entryY=0.5;entryDx=0;entryDy=0;entryPerimeter=0;" edge="1" parent="1" source="E5Td9oNzjHZt29u5cTtP-173" target="E5Td9oNzjHZt29u5cTtP-163">
          <mxGeometry width="50" height="50" relative="1" as="geometry">
            <mxPoint x="160" y="3240" as="sourcePoint" />
            <mxPoint x="160" y="1110" as="targetPoint" />
          </mxGeometry>
        </mxCell>
        <mxCell id="E5Td9oNzjHZt29u5cTtP-163" value="" style="html=1;points=[[0,0,0,0,5],[0,1,0,0,-5],[1,0,0,0,5],[1,1,0,0,-5]];perimeter=orthogonalPerimeter;outlineConnect=0;targetShapes=umlLifeline;portConstraint=eastwest;newEdgeStyle={&quot;curved&quot;:0,&quot;rounded&quot;:0};strokeColor=#457B9D;fontColor=#1D3557;fillColor=#A8DADC;" vertex="1" parent="1">
          <mxGeometry x="155" y="1380" width="10" height="50" as="geometry" />
        </mxCell>
        <mxCell id="E5Td9oNzjHZt29u5cTtP-164" value="" style="endArrow=none;dashed=1;html=1;dashPattern=1 3;strokeWidth=2;rounded=0;strokeColor=#457B9D;fontColor=#1D3557;fillColor=#A8DADC;entryX=0.571;entryY=1;entryDx=0;entryDy=0;entryPerimeter=0;" edge="1" parent="1" source="E5Td9oNzjHZt29u5cTtP-177" target="E5Td9oNzjHZt29u5cTtP-165">
          <mxGeometry width="50" height="50" relative="1" as="geometry">
            <mxPoint x="440" y="3240" as="sourcePoint" />
            <mxPoint x="441" y="1260" as="targetPoint" />
          </mxGeometry>
        </mxCell>
        <mxCell id="E5Td9oNzjHZt29u5cTtP-165" value="" style="html=1;points=[[0,0,0,0,5],[0,1,0,0,-5],[1,0,0,0,5],[1,1,0,0,-5]];perimeter=orthogonalPerimeter;outlineConnect=0;targetShapes=umlLifeline;portConstraint=eastwest;newEdgeStyle={&quot;curved&quot;:0,&quot;rounded&quot;:0};strokeColor=#457B9D;fontColor=#1D3557;fillColor=#A8DADC;" vertex="1" parent="1">
          <mxGeometry x="435" y="1470" width="10" height="300" as="geometry" />
        </mxCell>
        <mxCell id="E5Td9oNzjHZt29u5cTtP-166" value="" style="endArrow=none;dashed=1;html=1;dashPattern=1 3;strokeWidth=2;rounded=0;strokeColor=#457B9D;fontColor=#1D3557;fillColor=#A8DADC;entryX=0.467;entryY=1.014;entryDx=0;entryDy=0;entryPerimeter=0;" edge="1" parent="1" source="E5Td9oNzjHZt29u5cTtP-169" target="E5Td9oNzjHZt29u5cTtP-167">
          <mxGeometry width="50" height="50" relative="1" as="geometry">
            <mxPoint x="718" y="3240" as="sourcePoint" />
            <mxPoint x="720" y="1242" as="targetPoint" />
          </mxGeometry>
        </mxCell>
        <mxCell id="E5Td9oNzjHZt29u5cTtP-167" value="" style="html=1;points=[[0,0,0,0,5],[0,1,0,0,-5],[1,0,0,0,5],[1,1,0,0,-5]];perimeter=orthogonalPerimeter;outlineConnect=0;targetShapes=umlLifeline;portConstraint=eastwest;newEdgeStyle={&quot;curved&quot;:0,&quot;rounded&quot;:0};strokeColor=#457B9D;fontColor=#1D3557;fillColor=#A8DADC;" vertex="1" parent="1">
          <mxGeometry x="715" y="1500" width="10" height="100" as="geometry" />
        </mxCell>
        <mxCell id="E5Td9oNzjHZt29u5cTtP-117" value="Encode &#39;Nickname&#39; and &#39;Login&#39; using RSA" style="html=1;verticalAlign=bottom;endArrow=block;curved=0;rounded=0;strokeColor=#457B9D;fontColor=#1D3557;fillColor=#A8DADC;" edge="1" parent="1">
          <mxGeometry width="80" relative="1" as="geometry">
            <mxPoint x="725" y="1510" as="sourcePoint" />
            <mxPoint x="725" y="1600" as="targetPoint" />
            <Array as="points">
              <mxPoint x="805" y="1510" />
              <mxPoint x="805" y="1600" />
            </Array>
          </mxGeometry>
        </mxCell>
        <mxCell id="E5Td9oNzjHZt29u5cTtP-168" value="" style="endArrow=none;dashed=1;html=1;dashPattern=1 3;strokeWidth=2;rounded=0;strokeColor=#457B9D;fontColor=#1D3557;fillColor=#A8DADC;entryX=0.467;entryY=1.014;entryDx=0;entryDy=0;entryPerimeter=0;" edge="1" parent="1" source="E5Td9oNzjHZt29u5cTtP-180" target="E5Td9oNzjHZt29u5cTtP-169">
          <mxGeometry width="50" height="50" relative="1" as="geometry">
            <mxPoint x="718" y="3240" as="sourcePoint" />
            <mxPoint x="720" y="1601" as="targetPoint" />
          </mxGeometry>
        </mxCell>
        <mxCell id="E5Td9oNzjHZt29u5cTtP-169" value="" style="html=1;points=[[0,0,0,0,5],[0,1,0,0,-5],[1,0,0,0,5],[1,1,0,0,-5]];perimeter=orthogonalPerimeter;outlineConnect=0;targetShapes=umlLifeline;portConstraint=eastwest;newEdgeStyle={&quot;curved&quot;:0,&quot;rounded&quot;:0};strokeColor=#457B9D;fontColor=#1D3557;fillColor=#A8DADC;" vertex="1" parent="1">
          <mxGeometry x="715" y="1650" width="10" height="100" as="geometry" />
        </mxCell>
        <mxCell id="E5Td9oNzjHZt29u5cTtP-170" value="" style="endArrow=none;dashed=1;html=1;dashPattern=1 3;strokeWidth=2;rounded=0;strokeColor=#457B9D;fontColor=#1D3557;fillColor=#A8DADC;entryX=0.517;entryY=1.014;entryDx=0;entryDy=0;entryPerimeter=0;" edge="1" parent="1" source="E5Td9oNzjHZt29u5cTtP-185" target="E5Td9oNzjHZt29u5cTtP-171">
          <mxGeometry width="50" height="50" relative="1" as="geometry">
            <mxPoint x="1001" y="3240" as="sourcePoint" />
            <mxPoint x="1000" y="1231" as="targetPoint" />
          </mxGeometry>
        </mxCell>
        <mxCell id="E5Td9oNzjHZt29u5cTtP-171" value="" style="html=1;points=[[0,0,0,0,5],[0,1,0,0,-5],[1,0,0,0,5],[1,1,0,0,-5]];perimeter=orthogonalPerimeter;outlineConnect=0;targetShapes=umlLifeline;portConstraint=eastwest;newEdgeStyle={&quot;curved&quot;:0,&quot;rounded&quot;:0};strokeColor=#457B9D;fontColor=#1D3557;fillColor=#A8DADC;" vertex="1" parent="1">
          <mxGeometry x="995" y="1680" width="10" height="63" as="geometry" />
        </mxCell>
        <mxCell id="E5Td9oNzjHZt29u5cTtP-172" value="" style="endArrow=none;dashed=1;html=1;dashPattern=1 3;strokeWidth=2;rounded=0;strokeColor=#457B9D;fontColor=#1D3557;fillColor=#A8DADC;entryX=0.5;entryY=0.5;entryDx=0;entryDy=0;entryPerimeter=0;" edge="1" parent="1" source="E5Td9oNzjHZt29u5cTtP-175" target="E5Td9oNzjHZt29u5cTtP-173">
          <mxGeometry width="50" height="50" relative="1" as="geometry">
            <mxPoint x="160" y="3240" as="sourcePoint" />
            <mxPoint x="160" y="1405" as="targetPoint" />
          </mxGeometry>
        </mxCell>
        <mxCell id="E5Td9oNzjHZt29u5cTtP-173" value="" style="html=1;points=[[0,0,0,0,5],[0,1,0,0,-5],[1,0,0,0,5],[1,1,0,0,-5]];perimeter=orthogonalPerimeter;outlineConnect=0;targetShapes=umlLifeline;portConstraint=eastwest;newEdgeStyle={&quot;curved&quot;:0,&quot;rounded&quot;:0};strokeColor=#457B9D;fontColor=#1D3557;fillColor=#A8DADC;" vertex="1" parent="1">
          <mxGeometry x="155" y="1460" width="10" height="340" as="geometry" />
        </mxCell>
        <mxCell id="E5Td9oNzjHZt29u5cTtP-74" value="Alt" style="shape=umlFrame;whiteSpace=wrap;html=1;pointerEvents=0;strokeColor=#457B9D;fontColor=#1D3557;fillColor=#A8DADC;" vertex="1" parent="1">
          <mxGeometry x="130" y="1655" width="1450" height="175" as="geometry" />
        </mxCell>
        <mxCell id="E5Td9oNzjHZt29u5cTtP-77" value="[Transaction Fail]" style="text;html=1;strokeColor=none;fillColor=none;align=center;verticalAlign=middle;whiteSpace=wrap;rounded=0;fontColor=#1D3557;" vertex="1" parent="1">
          <mxGeometry x="70" y="1720" width="220" height="20" as="geometry" />
        </mxCell>
        <mxCell id="E5Td9oNzjHZt29u5cTtP-76" value="" style="endArrow=none;dashed=1;html=1;rounded=0;strokeColor=#457B9D;fontColor=#1D3557;fillColor=#A8DADC;entryX=1.001;entryY=0.347;entryDx=0;entryDy=0;entryPerimeter=0;" edge="1" parent="1" target="E5Td9oNzjHZt29u5cTtP-74">
          <mxGeometry width="50" height="50" relative="1" as="geometry">
            <mxPoint x="130" y="1715" as="sourcePoint" />
            <mxPoint x="300" y="1675" as="targetPoint" />
          </mxGeometry>
        </mxCell>
        <mxCell id="E5Td9oNzjHZt29u5cTtP-174" value="" style="endArrow=none;dashed=1;html=1;dashPattern=1 3;strokeWidth=2;rounded=0;strokeColor=#457B9D;fontColor=#1D3557;fillColor=#A8DADC;entryX=0.5;entryY=0.5;entryDx=0;entryDy=0;entryPerimeter=0;" edge="1" parent="1" source="E5Td9oNzjHZt29u5cTtP-179" target="E5Td9oNzjHZt29u5cTtP-175">
          <mxGeometry width="50" height="50" relative="1" as="geometry">
            <mxPoint x="160" y="3240" as="sourcePoint" />
            <mxPoint x="160" y="1630" as="targetPoint" />
          </mxGeometry>
        </mxCell>
        <mxCell id="E5Td9oNzjHZt29u5cTtP-175" value="" style="html=1;points=[[0,0,0,0,5],[0,1,0,0,-5],[1,0,0,0,5],[1,1,0,0,-5]];perimeter=orthogonalPerimeter;outlineConnect=0;targetShapes=umlLifeline;portConstraint=eastwest;newEdgeStyle={&quot;curved&quot;:0,&quot;rounded&quot;:0};strokeColor=#457B9D;fontColor=#1D3557;fillColor=#A8DADC;" vertex="1" parent="1">
          <mxGeometry x="155" y="1930" width="10" height="190" as="geometry" />
        </mxCell>
        <mxCell id="E5Td9oNzjHZt29u5cTtP-176" value="" style="endArrow=none;dashed=1;html=1;dashPattern=1 3;strokeWidth=2;rounded=0;strokeColor=#457B9D;fontColor=#1D3557;fillColor=#A8DADC;entryX=0.571;entryY=1;entryDx=0;entryDy=0;entryPerimeter=0;" edge="1" parent="1" source="E5Td9oNzjHZt29u5cTtP-191" target="E5Td9oNzjHZt29u5cTtP-177">
          <mxGeometry width="50" height="50" relative="1" as="geometry">
            <mxPoint x="440" y="3240" as="sourcePoint" />
            <mxPoint x="441" y="1770" as="targetPoint" />
          </mxGeometry>
        </mxCell>
        <mxCell id="E5Td9oNzjHZt29u5cTtP-177" value="" style="html=1;points=[[0,0,0,0,5],[0,1,0,0,-5],[1,0,0,0,5],[1,1,0,0,-5]];perimeter=orthogonalPerimeter;outlineConnect=0;targetShapes=umlLifeline;portConstraint=eastwest;newEdgeStyle={&quot;curved&quot;:0,&quot;rounded&quot;:0};strokeColor=#457B9D;fontColor=#1D3557;fillColor=#A8DADC;" vertex="1" parent="1">
          <mxGeometry x="435" y="2200" width="10" height="350" as="geometry" />
        </mxCell>
        <mxCell id="E5Td9oNzjHZt29u5cTtP-178" value="" style="endArrow=none;dashed=1;html=1;dashPattern=1 3;strokeWidth=2;rounded=0;strokeColor=#457B9D;fontColor=#1D3557;fillColor=#A8DADC;entryX=0.5;entryY=0.5;entryDx=0;entryDy=0;entryPerimeter=0;" edge="1" parent="1" source="E5Td9oNzjHZt29u5cTtP-188" target="E5Td9oNzjHZt29u5cTtP-179">
          <mxGeometry width="50" height="50" relative="1" as="geometry">
            <mxPoint x="160" y="3240" as="sourcePoint" />
            <mxPoint x="160" y="2025" as="targetPoint" />
          </mxGeometry>
        </mxCell>
        <mxCell id="E5Td9oNzjHZt29u5cTtP-179" value="" style="html=1;points=[[0,0,0,0,5],[0,1,0,0,-5],[1,0,0,0,5],[1,1,0,0,-5]];perimeter=orthogonalPerimeter;outlineConnect=0;targetShapes=umlLifeline;portConstraint=eastwest;newEdgeStyle={&quot;curved&quot;:0,&quot;rounded&quot;:0};strokeColor=#457B9D;fontColor=#1D3557;fillColor=#A8DADC;" vertex="1" parent="1">
          <mxGeometry x="155" y="2200" width="10" height="370" as="geometry" />
        </mxCell>
        <mxCell id="E5Td9oNzjHZt29u5cTtP-181" value="" style="endArrow=none;dashed=1;html=1;dashPattern=1 3;strokeWidth=2;rounded=0;strokeColor=#457B9D;fontColor=#1D3557;fillColor=#A8DADC;entryX=0.467;entryY=1.014;entryDx=0;entryDy=0;entryPerimeter=0;" edge="1" parent="1" source="E5Td9oNzjHZt29u5cTtP-183" target="E5Td9oNzjHZt29u5cTtP-180">
          <mxGeometry width="50" height="50" relative="1" as="geometry">
            <mxPoint x="718" y="3240" as="sourcePoint" />
            <mxPoint x="720" y="1751" as="targetPoint" />
          </mxGeometry>
        </mxCell>
        <mxCell id="E5Td9oNzjHZt29u5cTtP-180" value="" style="html=1;points=[[0,0,0,0,5],[0,1,0,0,-5],[1,0,0,0,5],[1,1,0,0,-5]];perimeter=orthogonalPerimeter;outlineConnect=0;targetShapes=umlLifeline;portConstraint=eastwest;newEdgeStyle={&quot;curved&quot;:0,&quot;rounded&quot;:0};strokeColor=#457B9D;fontColor=#1D3557;fillColor=#A8DADC;" vertex="1" parent="1">
          <mxGeometry x="715" y="2260" width="10" height="80" as="geometry" />
        </mxCell>
        <mxCell id="E5Td9oNzjHZt29u5cTtP-118" value="Encode &#39;Department&#39; and &#39;Login&#39; using RSA" style="html=1;verticalAlign=bottom;endArrow=block;curved=0;rounded=0;strokeColor=#457B9D;fontColor=#1D3557;fillColor=#A8DADC;" edge="1" parent="1">
          <mxGeometry width="80" relative="1" as="geometry">
            <mxPoint x="715" y="2260" as="sourcePoint" />
            <mxPoint x="715" y="2350" as="targetPoint" />
            <Array as="points">
              <mxPoint x="795" y="2260" />
              <mxPoint x="795" y="2350" />
            </Array>
          </mxGeometry>
        </mxCell>
        <mxCell id="E5Td9oNzjHZt29u5cTtP-182" value="" style="endArrow=none;dashed=1;html=1;dashPattern=1 3;strokeWidth=2;rounded=0;strokeColor=#457B9D;fontColor=#1D3557;fillColor=#A8DADC;entryX=0.467;entryY=1.014;entryDx=0;entryDy=0;entryPerimeter=0;" edge="1" parent="1" source="E5Td9oNzjHZt29u5cTtP-194" target="E5Td9oNzjHZt29u5cTtP-183">
          <mxGeometry width="50" height="50" relative="1" as="geometry">
            <mxPoint x="718" y="3240" as="sourcePoint" />
            <mxPoint x="720" y="2341" as="targetPoint" />
          </mxGeometry>
        </mxCell>
        <mxCell id="E5Td9oNzjHZt29u5cTtP-183" value="" style="html=1;points=[[0,0,0,0,5],[0,1,0,0,-5],[1,0,0,0,5],[1,1,0,0,-5]];perimeter=orthogonalPerimeter;outlineConnect=0;targetShapes=umlLifeline;portConstraint=eastwest;newEdgeStyle={&quot;curved&quot;:0,&quot;rounded&quot;:0};strokeColor=#457B9D;fontColor=#1D3557;fillColor=#A8DADC;" vertex="1" parent="1">
          <mxGeometry x="715" y="2400" width="10" height="120" as="geometry" />
        </mxCell>
        <mxCell id="E5Td9oNzjHZt29u5cTtP-184" value="" style="endArrow=none;dashed=1;html=1;dashPattern=1 3;strokeWidth=2;rounded=0;strokeColor=#457B9D;fontColor=#1D3557;fillColor=#A8DADC;entryX=0.517;entryY=1.014;entryDx=0;entryDy=0;entryPerimeter=0;" edge="1" parent="1" source="E5Td9oNzjHZt29u5cTtP-196" target="E5Td9oNzjHZt29u5cTtP-185">
          <mxGeometry width="50" height="50" relative="1" as="geometry">
            <mxPoint x="1001" y="3240" as="sourcePoint" />
            <mxPoint x="1000" y="1744" as="targetPoint" />
          </mxGeometry>
        </mxCell>
        <mxCell id="E5Td9oNzjHZt29u5cTtP-185" value="" style="html=1;points=[[0,0,0,0,5],[0,1,0,0,-5],[1,0,0,0,5],[1,1,0,0,-5]];perimeter=orthogonalPerimeter;outlineConnect=0;targetShapes=umlLifeline;portConstraint=eastwest;newEdgeStyle={&quot;curved&quot;:0,&quot;rounded&quot;:0};strokeColor=#457B9D;fontColor=#1D3557;fillColor=#A8DADC;" vertex="1" parent="1">
          <mxGeometry x="995" y="2440" width="10" height="70" as="geometry" />
        </mxCell>
        <mxCell id="E5Td9oNzjHZt29u5cTtP-186" value="" style="html=1;points=[[0,0,0,0,5],[0,1,0,0,-5],[1,0,0,0,5],[1,1,0,0,-5]];perimeter=orthogonalPerimeter;outlineConnect=0;targetShapes=umlLifeline;portConstraint=eastwest;newEdgeStyle={&quot;curved&quot;:0,&quot;rounded&quot;:0};strokeColor=#457B9D;fontColor=#1D3557;fillColor=#A8DADC;" vertex="1" parent="1">
          <mxGeometry x="1275" y="2440" width="10" height="20" as="geometry" />
        </mxCell>
        <mxCell id="E5Td9oNzjHZt29u5cTtP-108" value="[Transaction Fail]" style="text;html=1;strokeColor=none;fillColor=none;align=center;verticalAlign=middle;whiteSpace=wrap;rounded=0;fontColor=#1D3557;" vertex="1" parent="1">
          <mxGeometry x="80" y="2490" width="220" height="20" as="geometry" />
        </mxCell>
        <mxCell id="E5Td9oNzjHZt29u5cTtP-105" value="Alt" style="shape=umlFrame;whiteSpace=wrap;html=1;pointerEvents=0;strokeColor=#457B9D;fontColor=#1D3557;fillColor=#A8DADC;" vertex="1" parent="1">
          <mxGeometry x="130" y="2414" width="1450" height="186" as="geometry" />
        </mxCell>
        <mxCell id="E5Td9oNzjHZt29u5cTtP-107" value="" style="endArrow=none;dashed=1;html=1;rounded=0;strokeColor=#457B9D;fontColor=#1D3557;fillColor=#A8DADC;entryX=1.001;entryY=0.347;entryDx=0;entryDy=0;entryPerimeter=0;" edge="1" parent="1" target="E5Td9oNzjHZt29u5cTtP-105">
          <mxGeometry width="50" height="50" relative="1" as="geometry">
            <mxPoint x="130" y="2474" as="sourcePoint" />
            <mxPoint x="300" y="2434" as="targetPoint" />
          </mxGeometry>
        </mxCell>
        <mxCell id="E5Td9oNzjHZt29u5cTtP-187" value="" style="endArrow=none;dashed=1;html=1;dashPattern=1 3;strokeWidth=2;rounded=0;strokeColor=#457B9D;fontColor=#1D3557;fillColor=#A8DADC;entryX=0.5;entryY=0.5;entryDx=0;entryDy=0;entryPerimeter=0;" edge="1" parent="1" source="E5Td9oNzjHZt29u5cTtP-190" target="E5Td9oNzjHZt29u5cTtP-188">
          <mxGeometry width="50" height="50" relative="1" as="geometry">
            <mxPoint x="160" y="3240" as="sourcePoint" />
            <mxPoint x="160" y="2385" as="targetPoint" />
          </mxGeometry>
        </mxCell>
        <mxCell id="E5Td9oNzjHZt29u5cTtP-188" value="" style="html=1;points=[[0,0,0,0,5],[0,1,0,0,-5],[1,0,0,0,5],[1,1,0,0,-5]];perimeter=orthogonalPerimeter;outlineConnect=0;targetShapes=umlLifeline;portConstraint=eastwest;newEdgeStyle={&quot;curved&quot;:0,&quot;rounded&quot;:0};strokeColor=#457B9D;fontColor=#1D3557;fillColor=#A8DADC;" vertex="1" parent="1">
          <mxGeometry x="155" y="2690" width="10" height="40" as="geometry" />
        </mxCell>
        <mxCell id="E5Td9oNzjHZt29u5cTtP-189" value="" style="endArrow=none;dashed=1;html=1;dashPattern=1 3;strokeWidth=2;rounded=0;strokeColor=#457B9D;fontColor=#1D3557;fillColor=#A8DADC;entryX=0.5;entryY=0.5;entryDx=0;entryDy=0;entryPerimeter=0;" edge="1" parent="1" target="E5Td9oNzjHZt29u5cTtP-190">
          <mxGeometry width="50" height="50" relative="1" as="geometry">
            <mxPoint x="160" y="3240" as="sourcePoint" />
            <mxPoint x="160" y="2710" as="targetPoint" />
          </mxGeometry>
        </mxCell>
        <mxCell id="E5Td9oNzjHZt29u5cTtP-190" value="" style="html=1;points=[[0,0,0,0,5],[0,1,0,0,-5],[1,0,0,0,5],[1,1,0,0,-5]];perimeter=orthogonalPerimeter;outlineConnect=0;targetShapes=umlLifeline;portConstraint=eastwest;newEdgeStyle={&quot;curved&quot;:0,&quot;rounded&quot;:0};strokeColor=#457B9D;fontColor=#1D3557;fillColor=#A8DADC;" vertex="1" parent="1">
          <mxGeometry x="155" y="2770" width="10" height="370" as="geometry" />
        </mxCell>
        <mxCell id="E5Td9oNzjHZt29u5cTtP-192" value="" style="endArrow=none;dashed=1;html=1;dashPattern=1 3;strokeWidth=2;rounded=0;strokeColor=#457B9D;fontColor=#1D3557;fillColor=#A8DADC;entryX=0.571;entryY=1;entryDx=0;entryDy=0;entryPerimeter=0;" edge="1" parent="1" target="E5Td9oNzjHZt29u5cTtP-191">
          <mxGeometry width="50" height="50" relative="1" as="geometry">
            <mxPoint x="440" y="3240" as="sourcePoint" />
            <mxPoint x="441" y="2550" as="targetPoint" />
          </mxGeometry>
        </mxCell>
        <mxCell id="E5Td9oNzjHZt29u5cTtP-191" value="" style="html=1;points=[[0,0,0,0,5],[0,1,0,0,-5],[1,0,0,0,5],[1,1,0,0,-5]];perimeter=orthogonalPerimeter;outlineConnect=0;targetShapes=umlLifeline;portConstraint=eastwest;newEdgeStyle={&quot;curved&quot;:0,&quot;rounded&quot;:0};strokeColor=#457B9D;fontColor=#1D3557;fillColor=#A8DADC;" vertex="1" parent="1">
          <mxGeometry x="435" y="2810" width="10" height="300" as="geometry" />
        </mxCell>
        <mxCell id="E5Td9oNzjHZt29u5cTtP-193" value="" style="endArrow=none;dashed=1;html=1;dashPattern=1 3;strokeWidth=2;rounded=0;strokeColor=#457B9D;fontColor=#1D3557;fillColor=#A8DADC;entryX=0.467;entryY=1.014;entryDx=0;entryDy=0;entryPerimeter=0;" edge="1" parent="1" source="E5Td9oNzjHZt29u5cTtP-198" target="E5Td9oNzjHZt29u5cTtP-194">
          <mxGeometry width="50" height="50" relative="1" as="geometry">
            <mxPoint x="718" y="3240" as="sourcePoint" />
            <mxPoint x="720" y="2522" as="targetPoint" />
          </mxGeometry>
        </mxCell>
        <mxCell id="E5Td9oNzjHZt29u5cTtP-194" value="" style="html=1;points=[[0,0,0,0,5],[0,1,0,0,-5],[1,0,0,0,5],[1,1,0,0,-5]];perimeter=orthogonalPerimeter;outlineConnect=0;targetShapes=umlLifeline;portConstraint=eastwest;newEdgeStyle={&quot;curved&quot;:0,&quot;rounded&quot;:0};strokeColor=#457B9D;fontColor=#1D3557;fillColor=#A8DADC;" vertex="1" parent="1">
          <mxGeometry x="715" y="2830" width="10" height="80" as="geometry" />
        </mxCell>
        <mxCell id="E5Td9oNzjHZt29u5cTtP-115" value="Encode &#39;Password&#39; and &#39;Login&#39; using RSA" style="html=1;verticalAlign=bottom;endArrow=block;curved=0;rounded=0;strokeColor=#457B9D;fontColor=#1D3557;fillColor=#A8DADC;" edge="1" parent="1">
          <mxGeometry width="80" relative="1" as="geometry">
            <mxPoint x="720" y="2830" as="sourcePoint" />
            <mxPoint x="720" y="2920" as="targetPoint" />
            <Array as="points">
              <mxPoint x="800" y="2830" />
              <mxPoint x="800" y="2920" />
            </Array>
          </mxGeometry>
        </mxCell>
        <mxCell id="E5Td9oNzjHZt29u5cTtP-195" value="" style="endArrow=none;dashed=1;html=1;dashPattern=1 3;strokeWidth=2;rounded=0;strokeColor=#457B9D;fontColor=#1D3557;fillColor=#A8DADC;entryX=0.517;entryY=1.014;entryDx=0;entryDy=0;entryPerimeter=0;" edge="1" parent="1" target="E5Td9oNzjHZt29u5cTtP-196">
          <mxGeometry width="50" height="50" relative="1" as="geometry">
            <mxPoint x="1001" y="3240" as="sourcePoint" />
            <mxPoint x="1000" y="2511" as="targetPoint" />
          </mxGeometry>
        </mxCell>
        <mxCell id="E5Td9oNzjHZt29u5cTtP-196" value="" style="html=1;points=[[0,0,0,0,5],[0,1,0,0,-5],[1,0,0,0,5],[1,1,0,0,-5]];perimeter=orthogonalPerimeter;outlineConnect=0;targetShapes=umlLifeline;portConstraint=eastwest;newEdgeStyle={&quot;curved&quot;:0,&quot;rounded&quot;:0};strokeColor=#457B9D;fontColor=#1D3557;fillColor=#A8DADC;" vertex="1" parent="1">
          <mxGeometry x="995" y="2970" width="10" height="100" as="geometry" />
        </mxCell>
        <mxCell id="E5Td9oNzjHZt29u5cTtP-197" value="" style="endArrow=none;dashed=1;html=1;dashPattern=1 3;strokeWidth=2;rounded=0;strokeColor=#457B9D;fontColor=#1D3557;fillColor=#A8DADC;entryX=0.467;entryY=1.014;entryDx=0;entryDy=0;entryPerimeter=0;" edge="1" parent="1" target="E5Td9oNzjHZt29u5cTtP-198">
          <mxGeometry width="50" height="50" relative="1" as="geometry">
            <mxPoint x="718" y="3240" as="sourcePoint" />
            <mxPoint x="720" y="2911" as="targetPoint" />
          </mxGeometry>
        </mxCell>
        <mxCell id="E5Td9oNzjHZt29u5cTtP-198" value="" style="html=1;points=[[0,0,0,0,5],[0,1,0,0,-5],[1,0,0,0,5],[1,1,0,0,-5]];perimeter=orthogonalPerimeter;outlineConnect=0;targetShapes=umlLifeline;portConstraint=eastwest;newEdgeStyle={&quot;curved&quot;:0,&quot;rounded&quot;:0};strokeColor=#457B9D;fontColor=#1D3557;fillColor=#A8DADC;" vertex="1" parent="1">
          <mxGeometry x="715" y="2970" width="10" height="120" as="geometry" />
        </mxCell>
        <mxCell id="E5Td9oNzjHZt29u5cTtP-199" value="" style="html=1;points=[[0,0,0,0,5],[0,1,0,0,-5],[1,0,0,0,5],[1,1,0,0,-5]];perimeter=orthogonalPerimeter;outlineConnect=0;targetShapes=umlLifeline;portConstraint=eastwest;newEdgeStyle={&quot;curved&quot;:0,&quot;rounded&quot;:0};strokeColor=#457B9D;fontColor=#1D3557;fillColor=#A8DADC;" vertex="1" parent="1">
          <mxGeometry x="1275" y="3000" width="10" height="20" as="geometry" />
        </mxCell>
        <mxCell id="E5Td9oNzjHZt29u5cTtP-131" value="Alt" style="shape=umlFrame;whiteSpace=wrap;html=1;pointerEvents=0;strokeColor=#457B9D;fontColor=#1D3557;fillColor=#A8DADC;" vertex="1" parent="1">
          <mxGeometry x="130" y="2974" width="1450" height="186" as="geometry" />
        </mxCell>
        <mxCell id="E5Td9oNzjHZt29u5cTtP-133" value="" style="endArrow=none;dashed=1;html=1;rounded=0;strokeColor=#457B9D;fontColor=#1D3557;fillColor=#A8DADC;entryX=1.001;entryY=0.347;entryDx=0;entryDy=0;entryPerimeter=0;" edge="1" parent="1" target="E5Td9oNzjHZt29u5cTtP-131">
          <mxGeometry width="50" height="50" relative="1" as="geometry">
            <mxPoint x="130" y="3034" as="sourcePoint" />
            <mxPoint x="300" y="2994" as="targetPoint" />
          </mxGeometry>
        </mxCell>
        <mxCell id="E5Td9oNzjHZt29u5cTtP-134" value="[Transaction Fail]" style="text;html=1;strokeColor=none;fillColor=none;align=center;verticalAlign=middle;whiteSpace=wrap;rounded=0;fontColor=#1D3557;" vertex="1" parent="1">
          <mxGeometry x="80" y="3050" width="220" height="20" as="geometry" />
        </mxCell>
        <mxCell id="E5Td9oNzjHZt29u5cTtP-87" value="" style="html=1;points=[[0,0,0,0,5],[0,1,0,0,-5],[1,0,0,0,5],[1,1,0,0,-5]];perimeter=orthogonalPerimeter;outlineConnect=0;targetShapes=umlLifeline;portConstraint=eastwest;newEdgeStyle={&quot;curved&quot;:0,&quot;rounded&quot;:0};strokeColor=#457B9D;fontColor=#1D3557;fillColor=#A8DADC;" vertex="1" parent="1">
          <mxGeometry x="435" y="1951" width="10" height="140" as="geometry" />
        </mxCell>
        <mxCell id="E5Td9oNzjHZt29u5cTtP-88" value="" style="html=1;points=[[0,0,0,0,5],[0,1,0,0,-5],[1,0,0,0,5],[1,1,0,0,-5]];perimeter=orthogonalPerimeter;outlineConnect=0;targetShapes=umlLifeline;portConstraint=eastwest;newEdgeStyle={&quot;curved&quot;:0,&quot;rounded&quot;:0};strokeColor=#457B9D;fontColor=#1D3557;fillColor=#A8DADC;" vertex="1" parent="1">
          <mxGeometry x="715" y="1981" width="10" height="90" as="geometry" />
        </mxCell>
        <mxCell id="E5Td9oNzjHZt29u5cTtP-35" value="" style="html=1;points=[[0,0,0,0,5],[0,1,0,0,-5],[1,0,0,0,5],[1,1,0,0,-5]];perimeter=orthogonalPerimeter;outlineConnect=0;targetShapes=umlLifeline;portConstraint=eastwest;newEdgeStyle={&quot;curved&quot;:0,&quot;rounded&quot;:0};strokeColor=#457B9D;fontColor=#1D3557;fillColor=#A8DADC;" vertex="1" parent="1">
          <mxGeometry x="435" y="710" width="10" height="140" as="geometry" />
        </mxCell>
        <mxCell id="E5Td9oNzjHZt29u5cTtP-36" value="" style="html=1;points=[[0,0,0,0,5],[0,1,0,0,-5],[1,0,0,0,5],[1,1,0,0,-5]];perimeter=orthogonalPerimeter;outlineConnect=0;targetShapes=umlLifeline;portConstraint=eastwest;newEdgeStyle={&quot;curved&quot;:0,&quot;rounded&quot;:0};strokeColor=#457B9D;fontColor=#1D3557;fillColor=#A8DADC;" vertex="1" parent="1">
          <mxGeometry x="715" y="730" width="10" height="100" as="geometry" />
        </mxCell>
        <mxCell id="E5Td9oNzjHZt29u5cTtP-48" value="Opt" style="shape=umlFrame;whiteSpace=wrap;html=1;pointerEvents=0;strokeColor=#457B9D;fontColor=#1D3557;fillColor=#A8DADC;" vertex="1" parent="1">
          <mxGeometry x="130" y="650" width="1450" height="660" as="geometry" />
        </mxCell>
        <mxCell id="E5Td9oNzjHZt29u5cTtP-78" value="Opt" style="shape=umlFrame;whiteSpace=wrap;html=1;pointerEvents=0;strokeColor=#457B9D;fontColor=#1D3557;fillColor=#A8DADC;" vertex="1" parent="1">
          <mxGeometry x="130" y="1330" width="1450" height="500" as="geometry" />
        </mxCell>
        <mxCell id="E5Td9oNzjHZt29u5cTtP-103" value="Opt" style="shape=umlFrame;whiteSpace=wrap;html=1;pointerEvents=0;strokeColor=#457B9D;fontColor=#1D3557;fillColor=#A8DADC;" vertex="1" parent="1">
          <mxGeometry x="130" y="1860" width="1450" height="740" as="geometry" />
        </mxCell>
        <mxCell id="E5Td9oNzjHZt29u5cTtP-135" value="Opt" style="shape=umlFrame;whiteSpace=wrap;html=1;pointerEvents=0;strokeColor=#457B9D;fontColor=#1D3557;fillColor=#A8DADC;" vertex="1" parent="1">
          <mxGeometry x="130" y="2615" width="1450" height="545" as="geometry" />
        </mxCell>
      </root>
    </mxGraphModel>
  </diagram>
</mxfile>
